; OM File Header - Saved 2017/05/23 12:27:27
; (6.120003 :patc (om-make-point 24 24) (om-make-point 50 50) (om-make-point 1070 818) "" 183 0 nil nil)
; End File Header
(in-package :om)(load-lib-for (quote ("CNMAT-OM")))(setf *om-current-persistent* (om-load-patch1 "o-list-trans" (quote ((let ((box (om-load-boxcall (quote genfun) "O-LIST-TRANS 2" (quote cnmat:o-list-trans) (quote ((om-load-inputfun (quote input-funbox) "a  bpf" "MYBPF" nil) (om-load-inputfun (quote input-funbox) "number of output lists deisred" "NUM-TIMES" 1) (om-load-inputfun (quote input-funbox) "number of samples desired" "NUM-SAMPLES" 10) (om-load-inputfun (quote input-funbox) "list A" "LISTA" (list 6000 6100 6200)) (om-load-inputfun (quote input-funbox) "list B" "LISTB" (list 7200 7300 7400)))) (om-make-point 501 342) nil nil nil nil 1))) (when (fboundp (quote set-active)) (set-active box nil)) box) (let ((box (om-load-boxcall (quote abstraction) "PROBABILITY SHAPES" (om-load-patch-abs1 "PROBABILITY SHAPES" (quote ((let ((box (om-load-editor-box1 "BPF" (quote bpf) (quote ((om-load-inputfun (quote input-funbox) "object" "self" nil) (om-load-inputfun (quote input-funbox) "X coordinates (list)" "x-points" (list 0 100)) (om-load-inputfun (quote input-funbox) "Y coordinates (list)" "y-points" (list 0 100)) (om-load-inputfun (quote input-funbox) "precision (integer) [0 - 10]" "decimals" 0))) (om-make-point 245 223) (om-make-point 89 91) (let ((newobj (when (find-class (quote bpf) nil) (let ((newbpf (simple-bpf-from-list (quote (0 42 56 100)) (quote (100 0 0 100)) (quote bpf) 0))) (setf (bpfcolor newbpf) (om-make-color 0 0 0)) (set-name newbpf nil) newbpf)))) (when newobj) newobj) "x" nil (pairlis (quote (winsize winpos picture)) (list (om-make-point 904 687) (om-make-point 10 40) nil)) t nil nil nil))) (when (fboundp (quote set-active)) (set-active box nil)) box) (let ((box (om-load-editor-box1 "BPF" (quote bpf) (quote ((om-load-inputfun (quote input-funbox) "object" "self" nil) (om-load-inputfun (quote input-funbox) "X coordinates (list)" "x-points" (list 0 100)) (om-load-inputfun (quote input-funbox) "Y coordinates (list)" "y-points" (list 0 100)) (om-load-inputfun (quote input-funbox) "precision (integer) [0 - 10]" "decimals" 0))) (om-make-point 102 227) (om-make-point 89 91) (let ((newobj (when (find-class (quote bpf) nil) (let ((newbpf (simple-bpf-from-list (quote (0 6 42 50 93 100)) (quote (0 0 101 101 0 0)) (quote bpf) 0))) (setf (bpfcolor newbpf) (om-make-color 0 0 0)) (set-name newbpf nil) newbpf)))) (when newobj) newobj) "x" nil (pairlis (quote (winsize winpos picture)) (list (om-make-point 885 584) (om-make-point 10 40) nil)) t nil nil nil))) (when (fboundp (quote set-active)) (set-active box nil)) box) (let ((box (om-load-editor-box1 "BPF" (quote bpf) (quote ((om-load-inputfun (quote input-funbox) "object" "self" nil) (om-load-inputfun (quote input-funbox) "X coordinates (list)" "x-points" (list 0 100)) (om-load-inputfun (quote input-funbox) "Y coordinates (list)" "y-points" (list 0 100)) (om-load-inputfun (quote input-funbox) "precision (integer) [0 - 10]" "decimals" 0))) (om-make-point 237 90) (om-make-point 89 91) (let ((newobj (when (find-class (quote bpf) nil) (let ((newbpf (simple-bpf-from-list (quote (0 12 88 100)) (quote (100 100 0 0)) (quote bpf) 0))) (setf (bpfcolor newbpf) (om-make-color 0 0 0)) (set-name newbpf nil) newbpf)))) (when newobj) newobj) "x" nil (pairlis (quote (winsize winpos picture)) (list (om-make-point 888 518) (om-make-point 10 40) nil)) t nil nil nil))) (when (fboundp (quote set-active)) (set-active box nil)) box) (let ((box (om-load-editor-box1 "BPF" (quote bpf) (quote ((om-load-inputfun (quote input-funbox) "object" "self" nil) (om-load-inputfun (quote input-funbox) "X coordinates (list)" "x-points" (list 0 100)) (om-load-inputfun (quote input-funbox) "Y coordinates (list)" "y-points" (list 0 100)) (om-load-inputfun (quote input-funbox) "precision (integer) [0 - 10]" "decimals" 0))) (om-make-point 101 93) (om-make-point 89 91) (let ((newobj (when (find-class (quote bpf) nil) (let ((newbpf (simple-bpf-from-list (quote (0 15 86 100)) (quote (0 0 100 100)) (quote bpf) 0))) (setf (bpfcolor newbpf) (om-make-color 0 0 0)) (set-name newbpf nil) newbpf)))) (when newobj) newobj) "x" nil (pairlis (quote (winsize winpos picture)) (list (om-make-point 335 275) (om-make-point 10 40) nil)) t nil nil nil))) (when (fboundp (quote set-active)) (set-active box nil)) box))) (quote nil) 6.120003 nil "" (om-make-point 200 200) (om-make-point 500 400)) (quote nil) (om-make-point 60 609) nil nil nil "PROBABILITY SHAPES"))) (when (fboundp (quote set-active)) (set-active box nil)) box) (let ((box (om-load-boxcomment "comment 21" (om-make-point 288 40) (quote "This example transitions from listA to listB, following the bpf.") "" (om-make-point 48 133) nil (om-make-color 0 0 0) (om-make-font "Verdana" 12 :family "Verdana" :style (quote (:plain)) :mode (quote nil))))) (when (fboundp (quote set-active)) (set-active box nil)) box) (let ((box (om-load-boxcomment "comment 19" (om-make-point 193 42) (quote "OTHER BPFS THAT COULD BE USED--Look inside") "" (om-make-point 54 558) nil (om-make-color 0 0 0) (om-make-font "Verdana" 12 :family "Verdana" :style (quote (:bold)) :mode (quote nil))))) (when (fboundp (quote set-active)) (set-active box nil)) box) (let ((box (om-load-boxcomment "comment 18" (om-make-point 223 34) (quote "LIST-TRANSITION (default)") "" (om-make-point 50 84) nil (om-make-color 0 0 0) (om-make-font "Verdana" 12 :family "Verdana" :style (quote (:bold)) :mode (quote nil))))) (when (fboundp (quote set-active)) (set-active box nil)) box) (let ((box (om-load-editor-box1 "BPF" (quote bpf) (quote ((om-load-inputfun (quote input-funbox) "object" "self" nil) (om-load-inputfun (quote input-funbox) "X coordinates (list)" "x-points" (list 0 100)) (om-load-inputfun (quote input-funbox) "Y coordinates (list)" "y-points" (list 0 100)) (om-load-inputfun (quote input-funbox) "precision (integer) [0 - 10]" "decimals" 0))) (om-make-point 371 192) (om-make-point 40 60) (let ((newobj (when (find-class (quote bpf) nil) (let ((newbpf (simple-bpf-from-list (quote (0 100)) (quote (0 100)) (quote bpf) 0))) (setf (bpfcolor newbpf) (om-make-color 0 0 0)) (set-name newbpf nil) newbpf)))) (when newobj) newobj) "x" nil (pairlis (quote (picture winpos winsize)) (list nil (om-make-point 10 40) (om-make-point 550 327))) t nil nil nil))) (when (fboundp (quote set-active)) (set-active box nil)) box) (let ((box (om-load-boxcall (quote bastype) "aux 9" (quote t) (quote nil) (om-make-point 599 200) (om-make-point 199 30) (list (list 6000 6700) 6100 (list 6200 0.5)) "((6000 6700)  6100 (6200 0.5))" nil))) (when (fboundp (quote set-active)) (set-active box nil)) box) (let ((box (om-load-boxcall (quote bastype) "aux 8" (quote t) (quote nil) (om-make-point 803 199) (om-make-point 185 30) (list 7200 (list 7300 0.2) (list 7400 0.6)) "(7200 (7300 0.2) (7400 0.6))" nil))) (when (fboundp (quote set-active)) (set-active box nil)) box) (let ((box (om-load-boxcall (quote bastype) "aux 7" (quote t) (quote nil) (om-make-point 522 202) (om-make-point 34 30) 20 "20" nil))) (when (fboundp (quote set-active)) (set-active box nil)) box) (let ((box (om-load-boxcomment "comment 15" (om-make-point 39 27) (quote "bpf") "" (om-make-point 368 159) nil (om-make-color 0 0 0) (om-make-font "Verdana" 12 :family "Verdana" :style (quote (:plain)) :mode (quote nil))))) (when (fboundp (quote set-active)) (set-active box nil)) box) (let ((box (om-load-boxcomment "comment 14" (om-make-point 89 41) (quote "number of samples") "" (om-make-point 518 152) nil (om-make-color 0 0 0) (om-make-font "Verdana" 12 :family "Verdana" :style (quote (:plain)) :mode (quote nil))))) (when (fboundp (quote set-active)) (set-active box nil)) box) (let ((box (om-load-boxcomment "comment 13" (om-make-point 39 27) (quote "listA") "" (om-make-point 594 155) nil (om-make-color 0 0 0) (om-make-font "Verdana" 12 :family "Verdana" :style (quote (:plain)) :mode (quote nil))))) (when (fboundp (quote set-active)) (set-active box nil)) box) (let ((box (om-load-boxcomment "comment 12" (om-make-point 39 27) (quote "listB") "" (om-make-point 800 155) nil (om-make-color 0 0 0) (om-make-font "Verdana" 12 :family "Verdana" :style (quote (:plain)) :mode (quote nil))))) (when (fboundp (quote set-active)) (set-active box nil)) box) (let ((box (om-load-editor-box1 "TEXTFILE 2" (quote textfile) (quote ((om-load-inputfun (quote input-funbox) "object" "self" nil) (om-load-inputfun (quote input-funbox) "input data or text" "exp-list" nil) (om-load-inputfunmenu1 (quote input-funmenu) "append or supersede" "ed-mode" "supersede" (list (list "append" "append") (list "supersede" "supersede"))) (om-load-inputfunmenu1 (quote input-funmenu) "eval interpretation mode" "eval-mode" "list" (list (list "text" "text") (list "data list" "data") (list "list" "list") (list "value" "value"))))) (om-make-point 409 440) (om-make-point 308 61) (load-buffer-textfile (quote ("((6000 6700) 6100 (6000 6700) (6000 6700) (6000 6700) 7300 7400 6100 7300 7400 7400 7200 7300 6100 7300 6100 7400 7400 7200 7300)" "" "" "" "")) (quote textfile) "supersede" "list") nil nil (pairlis (quote (winpos winsize)) (list (om-make-point 10 40) (om-make-point 335 275))) t nil nil nil))) (when (fboundp (quote set-active)) (set-active box nil)) box) (let ((box (om-load-editor-box1 "VOICE" (quote voice) (quote ((om-load-inputfun (quote input-funbox) "object" "self" nil) (om-load-inputfun (quote input-funbox) "a list representing a rhythm tree" "tree" (list (quote ?) (list (list (list 4 4) (list 1 1 1 1))))) (om-load-inputfun (quote input-funbox) "a chord object, a list of chords, a list of midics, a list of lists of midics..." "chords" (list (let ((thechord (make-instance (quote chord) :lmidic (quote (6000)) :ldur (quote (1000)) :lvel (quote (100)) :loffset (quote (0)) :lchan (quote (1))))) (load-port-info thechord (quote (0))) (init-mus-color thechord (quote nil)) (set-extra-pairs thechord (quote nil)) (set-tonalite thechord nil) thechord))) (om-load-inputfun (quote input-funbox) "frequency of the quarter-note (default 60/mn)" "tempo" 110) (om-load-inputfun (quote input-funbox) "overlapping percentage between every successive chords, calculated from the second chord's duration" "legato" 100) (om-load-inputfun (quote input-funbox) "sub lists (one sub list per chord) indicating notes to be tied to notes of the same value, in a next chord" "ties" nil))) (om-make-point 432 623) (om-make-point 504 103) (let ((newobj (when (find-class (quote voice) nil) (make-instance (quote voice) :tree (quote (2 (((4 4) ((1 (1 1 1 1)) (1 (1 1 1 1)) (1 (1 1 1 1)) (1 (1 1 1 1)))) ((4 4) ((1 (1 1 1 1)) -3))))) :chords (load-obj-list-from-save (quote ((let ((thechord (make-instance (quote chord) :lmidic (quote (6000 6700)) :ldur (quote (136 136)) :lvel (quote (100 100)) :loffset (quote (0 0)) :lchan (quote (1 1))))) (load-port-info thechord (quote (0 0))) (init-mus-color thechord (quote nil)) (set-extra-pairs thechord (quote nil)) (set-tonalite thechord nil) thechord) (let ((thechord (make-instance (quote chord) :lmidic (quote (6100)) :ldur (quote (136)) :lvel (quote (80)) :loffset (quote (0)) :lchan (quote (1))))) (load-port-info thechord (quote (nil))) (init-mus-color thechord (quote nil)) (set-extra-pairs thechord (quote nil)) (set-tonalite thechord nil) thechord) (let ((thechord (make-instance (quote chord) :lmidic (quote (6000 6700)) :ldur (quote (136 136)) :lvel (quote (100 100)) :loffset (quote (0 0)) :lchan (quote (1 1))))) (load-port-info thechord (quote (0 0))) (init-mus-color thechord (quote nil)) (set-extra-pairs thechord (quote nil)) (set-tonalite thechord nil) thechord) (let ((thechord (make-instance (quote chord) :lmidic (quote (6000 6700)) :ldur (quote (136 136)) :lvel (quote (100 100)) :loffset (quote (0 0)) :lchan (quote (1 1))))) (load-port-info thechord (quote (0 0))) (init-mus-color thechord (quote nil)) (set-extra-pairs thechord (quote nil)) (set-tonalite thechord nil) thechord) (let ((thechord (make-instance (quote chord) :lmidic (quote (6000 6700)) :ldur (quote (136 136)) :lvel (quote (100 100)) :loffset (quote (0 0)) :lchan (quote (1 1))))) (load-port-info thechord (quote (0 0))) (init-mus-color thechord (quote nil)) (set-extra-pairs thechord (quote nil)) (set-tonalite thechord nil) thechord) (let ((thechord (make-instance (quote chord) :lmidic (quote (7300)) :ldur (quote (136)) :lvel (quote (80)) :loffset (quote (0)) :lchan (quote (1))))) (load-port-info thechord (quote (nil))) (init-mus-color thechord (quote nil)) (set-extra-pairs thechord (quote nil)) (set-tonalite thechord nil) thechord) (let ((thechord (make-instance (quote chord) :lmidic (quote (7400)) :ldur (quote (136)) :lvel (quote (80)) :loffset (quote (0)) :lchan (quote (1))))) (load-port-info thechord (quote (nil))) (init-mus-color thechord (quote nil)) (set-extra-pairs thechord (quote nil)) (set-tonalite thechord nil) thechord) (let ((thechord (make-instance (quote chord) :lmidic (quote (6100)) :ldur (quote (136)) :lvel (quote (80)) :loffset (quote (0)) :lchan (quote (1))))) (load-port-info thechord (quote (nil))) (init-mus-color thechord (quote nil)) (set-extra-pairs thechord (quote nil)) (set-tonalite thechord nil) thechord) (let ((thechord (make-instance (quote chord) :lmidic (quote (7300)) :ldur (quote (136)) :lvel (quote (80)) :loffset (quote (0)) :lchan (quote (1))))) (load-port-info thechord (quote (nil))) (init-mus-color thechord (quote nil)) (set-extra-pairs thechord (quote nil)) (set-tonalite thechord nil) thechord) (let ((thechord (make-instance (quote chord) :lmidic (quote (7400)) :ldur (quote (136)) :lvel (quote (80)) :loffset (quote (0)) :lchan (quote (1))))) (load-port-info thechord (quote (nil))) (init-mus-color thechord (quote nil)) (set-extra-pairs thechord (quote nil)) (set-tonalite thechord nil) thechord) (let ((thechord (make-instance (quote chord) :lmidic (quote (7400)) :ldur (quote (136)) :lvel (quote (80)) :loffset (quote (0)) :lchan (quote (1))))) (load-port-info thechord (quote (nil))) (init-mus-color thechord (quote nil)) (set-extra-pairs thechord (quote nil)) (set-tonalite thechord nil) thechord) (let ((thechord (make-instance (quote chord) :lmidic (quote (7200)) :ldur (quote (136)) :lvel (quote (80)) :loffset (quote (0)) :lchan (quote (1))))) (load-port-info thechord (quote (nil))) (init-mus-color thechord (quote nil)) (set-extra-pairs thechord (quote nil)) (set-tonalite thechord nil) thechord) (let ((thechord (make-instance (quote chord) :lmidic (quote (7300)) :ldur (quote (136)) :lvel (quote (80)) :loffset (quote (0)) :lchan (quote (1))))) (load-port-info thechord (quote (nil))) (init-mus-color thechord (quote nil)) (set-extra-pairs thechord (quote nil)) (set-tonalite thechord nil) thechord) (let ((thechord (make-instance (quote chord) :lmidic (quote (6100)) :ldur (quote (136)) :lvel (quote (80)) :loffset (quote (0)) :lchan (quote (1))))) (load-port-info thechord (quote (nil))) (init-mus-color thechord (quote nil)) (set-extra-pairs thechord (quote nil)) (set-tonalite thechord nil) thechord) (let ((thechord (make-instance (quote chord) :lmidic (quote (7300)) :ldur (quote (136)) :lvel (quote (80)) :loffset (quote (0)) :lchan (quote (1))))) (load-port-info thechord (quote (nil))) (init-mus-color thechord (quote nil)) (set-extra-pairs thechord (quote nil)) (set-tonalite thechord nil) thechord) (let ((thechord (make-instance (quote chord) :lmidic (quote (6100)) :ldur (quote (136)) :lvel (quote (80)) :loffset (quote (0)) :lchan (quote (1))))) (load-port-info thechord (quote (nil))) (init-mus-color thechord (quote nil)) (set-extra-pairs thechord (quote nil)) (set-tonalite thechord nil) thechord) (let ((thechord (make-instance (quote chord) :lmidic (quote (7400)) :ldur (quote (136)) :lvel (quote (80)) :loffset (quote (0)) :lchan (quote (1))))) (load-port-info thechord (quote (nil))) (init-mus-color thechord (quote nil)) (set-extra-pairs thechord (quote nil)) (set-tonalite thechord nil) thechord) (let ((thechord (make-instance (quote chord) :lmidic (quote (7400)) :ldur (quote (136)) :lvel (quote (80)) :loffset (quote (0)) :lchan (quote (1))))) (load-port-info thechord (quote (nil))) (init-mus-color thechord (quote nil)) (set-extra-pairs thechord (quote nil)) (set-tonalite thechord nil) thechord) (let ((thechord (make-instance (quote chord) :lmidic (quote (7200)) :ldur (quote (136)) :lvel (quote (80)) :loffset (quote (0)) :lchan (quote (1))))) (load-port-info thechord (quote (nil))) (init-mus-color thechord (quote nil)) (set-extra-pairs thechord (quote nil)) (set-tonalite thechord nil) thechord) (let ((thechord (make-instance (quote chord) :lmidic (quote (7300)) :ldur (quote (136)) :lvel (quote (80)) :loffset (quote (0)) :lchan (quote (1))))) (load-port-info thechord (quote (nil))) (init-mus-color thechord (quote nil)) (set-extra-pairs thechord (quote nil)) (set-tonalite thechord nil) thechord)))) :tempo (quote ((1/4 110) nil)) :legato 100 :ties (quote (nil nil nil nil nil nil nil nil nil nil nil nil nil nil nil nil nil nil nil nil)))))) (load-port-info newobj (quote nil)) (init-mus-color newobj (quote nil)) (set-extra-pairs newobj (quote nil)) (set-patch-pairs newobj (quote nil)) (set-name newobj nil) (set-tonalite newobj nil) newobj) nil nil (pairlis (quote (approx fontsize staff cmnpref deltapict outport inport player zoom notechancolor? grillestep mode winsize winpos score-mode obj-mode cursor-mode show-stems scale)) (list 2 24 (quote g) (let ((newobj (make-instance (quote edition-values)))) (setf (paper-size newobj) (om-make-point 600 800)) (setf (top-margin newobj) 2) (setf (left-margin newobj) 1) (setf (right-margin newobj) 1) (setf (bottom-margin newobj) 1) (setf (orientation newobj) nil) (setf (scale newobj) nil) (setf (system-space newobj) (quote (1))) (setf (system-color newobj) (quote nil)) (setf (line-space newobj) 1) (setf (title newobj) nil) (setf (show-title? newobj) nil) (setf (show-page? newobj) nil) (setf (sheet-id newobj) nil) (setf (page-mode newobj) nil) newobj) (om-make-point 0 0) nil nil (quote :midi-player) 1 nil 1000 0 (om-make-point 370 280) (om-make-point 400 23) 0 1 (quote :normal) (quote t) nil)) t nil nil nil))) (when (fboundp (quote set-active)) (set-active box nil)) box) (let ((box (om-load-boxcomment "comment 11" (om-make-point 201 53) (quote "LIST-TRANSITION $(with weighted probabilities)") "" (om-make-point 380 51) nil (om-make-color 0 0 0) (om-make-font "Verdana" 12 :family "Verdana" :style (quote (:bold)) :mode (quote nil))))) (when (fboundp (quote set-active)) (set-active box nil)) box) (let ((box (om-load-boxcomment "comment 6" (om-make-point 282 372) (quote "$Returns a list of random elements from listA or listB following a bpf to guide the probability from which list (A or B) a given element is chosen.$$Second argument specifies the number of output lists desired.$$Default:$Within each list (listA or listB), elements have equal probability of being chosen. Or provide weights specifying probabilities for each element in listA or listB.$$*Bpfs should use range of 1-100 for both x and y domains.$$$$") "" (om-make-point 45 176) nil (om-make-color 0 0 0) (om-make-font "Verdana" 12 :family "Verdana" :style (quote (:plain)) :mode (quote nil))))) (when (fboundp (quote set-active)) (set-active box nil)) box) (let ((box (om-load-boxcomment "comment 5" (om-make-point 399 97) (quote "*Provide an argument for probability weights in the form (element, weight), where weight is a float value between 0.0-1.0.  Elements without a weight will be assigned a weight equally divided from the remainder after the assigned weights have been allocated.") "" (om-make-point 595 42) nil (om-make-color 0 0 0) (om-make-font "Verdana" 12 :family "Verdana" :style (quote (:plain)) :mode (quote nil))))) (when (fboundp (quote set-active)) (set-active box nil)) box) (let ((box (om-load-boxcomment "comment 2" (om-make-point 97 60) (quote "number of output lists desired") "" (om-make-point 426 135) nil (om-make-color 0 0 0) (om-make-font "Verdana" 12 :family "Verdana" :style (quote (:plain)) :mode (quote nil))))) (when (fboundp (quote set-active)) (set-active box nil)) box) (let ((box (om-load-boxcall (quote bastype) "aux 2" (quote t) (quote nil) (om-make-point 436 203) (om-make-point 27 30) 1 "1" nil))) (when (fboundp (quote set-active)) (set-active box nil)) box) (let ((box (om-load-boxcomment "comment" (om-make-point 54 30) (quote "tempo") "" (om-make-point 604 499) nil (om-make-color 0 0 0) (om-make-font "Verdana" 12 :family "Verdana" :style (quote (:plain)) :mode (quote nil))))) (when (fboundp (quote set-active)) (set-active box nil)) box) (let ((box (om-load-boxcall (quote bastype) "aux" (quote t) (quote nil) (om-make-point 609 533) (om-make-point 41 30) 110 "110" nil))) (when (fboundp (quote set-active)) (set-active box nil)) box) (let ((box (om-load-boxcall (quote abstraction) "map to pitches" (om-load-patch-abs1 "map to pitches" (quote ((let ((box (om-load-boxcall (quote bastype) "aux 2" (quote t) (quote nil) (om-make-point 28 111) (om-make-point 27 30) 1 "1" nil))) (when (fboundp (quote set-active)) (set-active box nil)) box) (let ((box (om-load-boxin "tempo" 1 (om-make-point 308 53) "" "tempo" nil nil))) (when (fboundp (quote set-active)) (set-active box nil)) box) (let ((box (om-load-boxcall (quote genfun) "FLAT" (quote flat) (quote ((om-load-inputfun (quote input-funbox) "a list" "LST" nil) (om-load-inputfun (quote input-funbox) "level of parenthesis" "LEVEL" nil))) (om-make-point 14 141) nil nil nil nil 1))) (when (fboundp (quote set-active)) (set-active box nil)) box) (let ((box (om-load-boxout "output" 0 (om-make-point 12 433) (quote ((om-load-inputfun (quote input-funbox) "" "out" nil))) nil nil))) (when (fboundp (quote set-active)) (set-active box nil)) box) (let ((box (om-load-boxcall (quote lispfun) "LENGTH" (quote length) (quote ((om-load-inputfun (quote input-funbox) "SEQUENCE" "SEQUENCE" nil))) (om-make-point 117 95) nil nil nil nil 1))) (when (fboundp (quote set-active)) (set-active box nil)) box) (let ((box (om-load-boxcall (quote bastype) "aux" (quote t) (quote nil) (om-make-point 229 82) (om-make-point 46 30) 1/16 "1/16" nil))) (when (fboundp (quote set-active)) (set-active box nil)) box) (let ((box (om-load-boxcall (quote genfun) "REPEAT-N" (quote repeat-n) (quote ((om-load-inputfun (quote input-funbox) "something" "SELF" nil) (om-load-inputfun (quote input-funbox) "times" "N" 0))) (om-make-point 162 126) nil nil nil nil 1))) (when (fboundp (quote set-active)) (set-active box nil)) box) (let ((box (om-load-editor-box1 "VOICE" (quote voice) (quote ((om-load-inputfun (quote input-funbox) "object" "self" nil) (om-load-inputfun (quote input-funbox) "a list representing a rhythm tree" "tree" (list (quote ?) (list (list (list 4 4) (list 1 1 1 1))))) (om-load-inputfun (quote input-funbox) "a chord object, a list of chords, a list of midics, a list of lists of midics..." "chords" (list (let ((thechord (make-instance (quote chord) :lmidic (quote (6000)) :ldur (quote (1000)) :lvel (quote (100)) :loffset (quote (0)) :lchan (quote (1))))) (load-port-info thechord (quote (0))) (init-mus-color thechord (quote nil)) (set-extra-pairs thechord (quote nil)) (set-tonalite thechord nil) thechord))) (om-load-inputfun (quote input-funbox) "frequency of the quarter-note (default 60/mn)" "tempo" 60) (om-load-inputfun (quote input-funbox) "overlapping percentage between every successive chords, calculated from the second chord's duration" "legato" 100) (om-load-inputfun (quote input-funbox) "sub lists (one sub list per chord) indicating notes to be tied to notes of the same value, in a next chord" "ties" nil))) (om-make-point 41 270) (om-make-point 130 70) (let ((newobj (when (find-class (quote voice) nil) (make-instance (quote voice) :tree (quote (1 (((4 4) (1 1 1 1))))) :chords (load-obj-list-from-save (quote ((let ((thechord (make-instance (quote chord) :lmidic (quote (6000)) :ldur (quote (1000)) :lvel (quote (100)) :loffset (quote (0)) :lchan (quote (1))))) (load-port-info thechord (quote (0))) (init-mus-color thechord (quote nil)) (set-extra-pairs thechord (quote nil)) (set-tonalite thechord nil) thechord) (let ((thechord (make-instance (quote chord) :lmidic (quote (6000)) :ldur (quote (1000)) :lvel (quote (100)) :loffset (quote (0)) :lchan (quote (1))))) (load-port-info thechord (quote (0))) (init-mus-color thechord (quote nil)) (set-extra-pairs thechord (quote nil)) (set-tonalite thechord nil) thechord) (let ((thechord (make-instance (quote chord) :lmidic (quote (6000)) :ldur (quote (1000)) :lvel (quote (100)) :loffset (quote (0)) :lchan (quote (1))))) (load-port-info thechord (quote (0))) (init-mus-color thechord (quote nil)) (set-extra-pairs thechord (quote nil)) (set-tonalite thechord nil) thechord) (let ((thechord (make-instance (quote chord) :lmidic (quote (6000)) :ldur (quote (1000)) :lvel (quote (100)) :loffset (quote (0)) :lchan (quote (1))))) (load-port-info thechord (quote (0))) (init-mus-color thechord (quote nil)) (set-extra-pairs thechord (quote nil)) (set-tonalite thechord nil) thechord)))) :tempo (quote ((1/4 60) nil)) :legato 100 :ties (quote (nil nil nil nil)))))) (load-port-info newobj (quote nil)) (init-mus-color newobj (quote nil)) (set-extra-pairs newobj (quote nil)) (set-patch-pairs newobj (quote nil)) (set-name newobj nil) (set-tonalite newobj nil) newobj) nil nil (pairlis (quote (approx fontsize staff cmnpref deltapict outport inport player zoom notechancolor? grillestep mode winsize winpos score-mode obj-mode cursor-mode show-stems scale)) (list 2 24 (quote g) (let ((newobj (make-instance (quote edition-values)))) (setf (paper-size newobj) (om-make-point 600 800)) (setf (top-margin newobj) 2) (setf (left-margin newobj) 1) (setf (right-margin newobj) 1) (setf (bottom-margin newobj) 1) (setf (orientation newobj) nil) (setf (scale newobj) nil) (setf (system-space newobj) (quote (1))) (setf (system-color newobj) (quote nil)) (setf (line-space newobj) 1) (setf (title newobj) nil) (setf (show-title? newobj) nil) (setf (show-page? newobj) nil) (setf (sheet-id newobj) nil) (setf (page-mode newobj) nil) newobj) (om-make-point 0 0) nil nil (quote :midi-player) 1 nil 1000 0 (om-make-point 370 280) (om-make-point 400 20) 0 1 (quote :normal) (quote t) nil)) nil nil nil nil))) (when (fboundp (quote set-active)) (set-active box nil)) box) (let ((box (om-load-boxin "sequence" 0 (om-make-point 5 45) "" "sequence" nil nil))) (when (fboundp (quote set-active)) (set-active box nil)) box))) (quote ((8 0 2 0 nil 0) (0 0 2 1 nil 0) (7 0 3 0 nil 0) (2 0 4 0 nil 0) (5 0 6 0 nil 0) (4 0 6 1 nil 0) (6 0 7 1 nil 0) (2 0 7 2 nil 0) (1 0 7 3 nil 0))) 6.120003 nil "" (om-make-point 200 200) (om-make-point 500 400)) (quote ((om-load-inputfun (quote input-funbox) "" "sequence" nil) (om-load-inputfun (quote input-funbox) "" "input" nil))) (om-make-point 501 549) nil (list (let ((newobj (when (find-class (quote voice) nil) (make-instance (quote voice) :tree (quote (2 (((4 4) ((1 (1 1 1 1)) (1 (1 1 1 1)) (1 (1 1 1 1)) (1 (1 1 1 1)))) ((4 4) ((1 (1 1 1 1)) -3))))) :chords (load-obj-list-from-save (quote ((let ((thechord (make-instance (quote chord) :lmidic (quote (6000 6700)) :ldur (quote (136 136)) :lvel (quote (100 100)) :loffset (quote (0 0)) :lchan (quote (1 1))))) (load-port-info thechord (quote (0 0))) (init-mus-color thechord (quote nil)) (set-extra-pairs thechord (quote nil)) (set-tonalite thechord nil) thechord) (let ((thechord (make-instance (quote chord) :lmidic (quote (6100)) :ldur (quote (136)) :lvel (quote (80)) :loffset (quote (0)) :lchan (quote (1))))) (load-port-info thechord (quote (nil))) (init-mus-color thechord (quote nil)) (set-extra-pairs thechord (quote nil)) (set-tonalite thechord nil) thechord) (let ((thechord (make-instance (quote chord) :lmidic (quote (6000 6700)) :ldur (quote (136 136)) :lvel (quote (100 100)) :loffset (quote (0 0)) :lchan (quote (1 1))))) (load-port-info thechord (quote (0 0))) (init-mus-color thechord (quote nil)) (set-extra-pairs thechord (quote nil)) (set-tonalite thechord nil) thechord) (let ((thechord (make-instance (quote chord) :lmidic (quote (6000 6700)) :ldur (quote (136 136)) :lvel (quote (100 100)) :loffset (quote (0 0)) :lchan (quote (1 1))))) (load-port-info thechord (quote (0 0))) (init-mus-color thechord (quote nil)) (set-extra-pairs thechord (quote nil)) (set-tonalite thechord nil) thechord) (let ((thechord (make-instance (quote chord) :lmidic (quote (6000 6700)) :ldur (quote (136 136)) :lvel (quote (100 100)) :loffset (quote (0 0)) :lchan (quote (1 1))))) (load-port-info thechord (quote (0 0))) (init-mus-color thechord (quote nil)) (set-extra-pairs thechord (quote nil)) (set-tonalite thechord nil) thechord) (let ((thechord (make-instance (quote chord) :lmidic (quote (7300)) :ldur (quote (136)) :lvel (quote (80)) :loffset (quote (0)) :lchan (quote (1))))) (load-port-info thechord (quote (nil))) (init-mus-color thechord (quote nil)) (set-extra-pairs thechord (quote nil)) (set-tonalite thechord nil) thechord) (let ((thechord (make-instance (quote chord) :lmidic (quote (7400)) :ldur (quote (136)) :lvel (quote (80)) :loffset (quote (0)) :lchan (quote (1))))) (load-port-info thechord (quote (nil))) (init-mus-color thechord (quote nil)) (set-extra-pairs thechord (quote nil)) (set-tonalite thechord nil) thechord) (let ((thechord (make-instance (quote chord) :lmidic (quote (6100)) :ldur (quote (136)) :lvel (quote (80)) :loffset (quote (0)) :lchan (quote (1))))) (load-port-info thechord (quote (nil))) (init-mus-color thechord (quote nil)) (set-extra-pairs thechord (quote nil)) (set-tonalite thechord nil) thechord) (let ((thechord (make-instance (quote chord) :lmidic (quote (7300)) :ldur (quote (136)) :lvel (quote (80)) :loffset (quote (0)) :lchan (quote (1))))) (load-port-info thechord (quote (nil))) (init-mus-color thechord (quote nil)) (set-extra-pairs thechord (quote nil)) (set-tonalite thechord nil) thechord) (let ((thechord (make-instance (quote chord) :lmidic (quote (7400)) :ldur (quote (136)) :lvel (quote (80)) :loffset (quote (0)) :lchan (quote (1))))) (load-port-info thechord (quote (nil))) (init-mus-color thechord (quote nil)) (set-extra-pairs thechord (quote nil)) (set-tonalite thechord nil) thechord) (let ((thechord (make-instance (quote chord) :lmidic (quote (7400)) :ldur (quote (136)) :lvel (quote (80)) :loffset (quote (0)) :lchan (quote (1))))) (load-port-info thechord (quote (nil))) (init-mus-color thechord (quote nil)) (set-extra-pairs thechord (quote nil)) (set-tonalite thechord nil) thechord) (let ((thechord (make-instance (quote chord) :lmidic (quote (7200)) :ldur (quote (136)) :lvel (quote (80)) :loffset (quote (0)) :lchan (quote (1))))) (load-port-info thechord (quote (nil))) (init-mus-color thechord (quote nil)) (set-extra-pairs thechord (quote nil)) (set-tonalite thechord nil) thechord) (let ((thechord (make-instance (quote chord) :lmidic (quote (7300)) :ldur (quote (136)) :lvel (quote (80)) :loffset (quote (0)) :lchan (quote (1))))) (load-port-info thechord (quote (nil))) (init-mus-color thechord (quote nil)) (set-extra-pairs thechord (quote nil)) (set-tonalite thechord nil) thechord) (let ((thechord (make-instance (quote chord) :lmidic (quote (6100)) :ldur (quote (136)) :lvel (quote (80)) :loffset (quote (0)) :lchan (quote (1))))) (load-port-info thechord (quote (nil))) (init-mus-color thechord (quote nil)) (set-extra-pairs thechord (quote nil)) (set-tonalite thechord nil) thechord) (let ((thechord (make-instance (quote chord) :lmidic (quote (7300)) :ldur (quote (136)) :lvel (quote (80)) :loffset (quote (0)) :lchan (quote (1))))) (load-port-info thechord (quote (nil))) (init-mus-color thechord (quote nil)) (set-extra-pairs thechord (quote nil)) (set-tonalite thechord nil) thechord) (let ((thechord (make-instance (quote chord) :lmidic (quote (6100)) :ldur (quote (136)) :lvel (quote (80)) :loffset (quote (0)) :lchan (quote (1))))) (load-port-info thechord (quote (nil))) (init-mus-color thechord (quote nil)) (set-extra-pairs thechord (quote nil)) (set-tonalite thechord nil) thechord) (let ((thechord (make-instance (quote chord) :lmidic (quote (7400)) :ldur (quote (136)) :lvel (quote (80)) :loffset (quote (0)) :lchan (quote (1))))) (load-port-info thechord (quote (nil))) (init-mus-color thechord (quote nil)) (set-extra-pairs thechord (quote nil)) (set-tonalite thechord nil) thechord) (let ((thechord (make-instance (quote chord) :lmidic (quote (7400)) :ldur (quote (136)) :lvel (quote (80)) :loffset (quote (0)) :lchan (quote (1))))) (load-port-info thechord (quote (nil))) (init-mus-color thechord (quote nil)) (set-extra-pairs thechord (quote nil)) (set-tonalite thechord nil) thechord) (let ((thechord (make-instance (quote chord) :lmidic (quote (7200)) :ldur (quote (136)) :lvel (quote (80)) :loffset (quote (0)) :lchan (quote (1))))) (load-port-info thechord (quote (nil))) (init-mus-color thechord (quote nil)) (set-extra-pairs thechord (quote nil)) (set-tonalite thechord nil) thechord) (let ((thechord (make-instance (quote chord) :lmidic (quote (7300)) :ldur (quote (136)) :lvel (quote (80)) :loffset (quote (0)) :lchan (quote (1))))) (load-port-info thechord (quote (nil))) (init-mus-color thechord (quote nil)) (set-extra-pairs thechord (quote nil)) (set-tonalite thechord nil) thechord)))) :tempo (quote ((1/4 110) nil)) :legato 100 :ties (quote (nil nil nil nil nil nil nil nil nil nil nil nil nil nil nil nil nil nil nil nil)))))) (load-port-info newobj (quote nil)) (init-mus-color newobj (quote nil)) (set-extra-pairs newobj (quote nil)) (set-patch-pairs newobj (quote nil)) (set-name newobj nil) (set-tonalite newobj nil) newobj)) nil "map to pitches"))) (when (fboundp (quote set-active)) (set-active box nil)) box))) (quote ((5 0 0 0 nil 0) (19 0 0 1 nil 0) (8 0 0 2 nil 0) (6 0 0 3 nil 0) (7 0 0 4 nil 0) (0 0 13 1 nil 0) (22 0 14 0 nil 0) (13 1 22 0 nil 0) (21 0 22 1 nil 0))) nil 6.120003))
