; OM File Header - Saved 2017/05/18 15:50:12
; (6.120003 :patc (om-make-point 24 24) (om-make-point 50 50) (om-make-point 869 784) "" 183 0 nil "2017/05/18 15:47:15")
; End File Header
(in-package :om)(load-lib-for (quote ("CNMAT-OM")))(setf *om-current-persistent* (om-load-patch1 "o-list-repeat" (quote ((let ((box (om-load-boxcomment "comment 3" (om-make-point 113 27) (quote "mode=1") "" (om-make-point 709 225) nil (om-make-color 0 0 0) (om-make-font "Verdana" 12 :family "Verdana" :style (quote (:plain)) :mode (quote nil))))) (when (fboundp (quote set-active)) (set-active box nil)) box) (let ((box (om-load-boxcomment "comment 8" (om-make-point 83 28) (quote "list lengths") "" (om-make-point 693 557) nil (om-make-color 0 0 0) (om-make-font "Verdana" 12 :family "Verdana" :style (quote (:plain)) :mode (quote nil))))) (when (fboundp (quote set-active)) (set-active box nil)) box) (let ((box (om-load-editor-box1 "TEXTFILE 4" (quote textfile) (quote ((om-load-inputfun (quote input-funbox) "object" "self" nil) (om-load-inputfun (quote input-funbox) "input data or text" "exp-list" nil) (om-load-inputfunmenu1 (quote input-funmenu) "append or supersede" "ed-mode" "supersede" (list (list "append" "append") (list "supersede" "supersede"))) (om-load-inputfunmenu1 (quote input-funmenu) "eval interpretation mode" "eval-mode" "list" (list (list "text" "text") (list "data list" "data") (list "list" "list") (list "value" "value"))))) (om-make-point 671 611) (om-make-point 110 102) (load-buffer-textfile (quote ("19" "19" "19" "19" "" "" "" "" "" "" "" "" "")) (quote textfile) "supersede" "list") nil nil (pairlis (quote (winsize winpos)) (list (om-make-point 335 275) (om-make-point 10 40))) t nil nil nil))) (when (fboundp (quote set-active)) (set-active box nil)) box) (let ((box (om-load-boxcall (quote lispfun) "SECOND" (quote second) (quote ((om-load-inputfun (quote input-funbox) "LIST" "LIST" nil))) (om-make-point 613 550) nil nil nil nil 1))) (when (fboundp (quote set-active)) (set-active box nil)) box) (let ((box (om-load-boxcomment "comment 7" (om-make-point 83 28) (quote "output lists") "" (om-make-point 398 552) nil (om-make-color 0 0 0) (om-make-font "Verdana" 12 :family "Verdana" :style (quote (:plain)) :mode (quote nil))))) (when (fboundp (quote set-active)) (set-active box nil)) box) (let ((box (om-load-editor-box1 "TEXTFILE 3" (quote textfile) (quote ((om-load-inputfun (quote input-funbox) "object" "self" nil) (om-load-inputfun (quote input-funbox) "input data or text" "exp-list" nil) (om-load-inputfunmenu1 (quote input-funmenu) "append or supersede" "ed-mode" "supersede" (list (list "append" "append") (list "supersede" "supersede"))) (om-load-inputfunmenu1 (quote input-funmenu) "eval interpretation mode" "eval-mode" "list" (list (list "text" "text") (list "data list" "data") (list "list" "list") (list "value" "value"))))) (om-make-point 400 619) (om-make-point 203 89) (load-buffer-textfile (quote ("((1 2 3 5) (1 2 3 5) (1 2 3 5) (1 2 3 5) (1 2 3))" "((2 3 5 1) (2 3 5 1) (2 3 5 1) (2 3 5 1) (2 3 5))" "((3 5 1 2) (3 5 1 2) (3 5 1 2) (3 5 1 2) (3 5 1))" "((5 1 2 3) (5 1 2 3) (5 1 2 3) (5 1 2 3) (5 1 2))" "" "" "" "" "" "" "" "" "")) (quote textfile) "supersede" "list") "x" nil (pairlis (quote (winsize winpos)) (list (om-make-point 335 275) (om-make-point 10 40))) t nil nil nil))) (when (fboundp (quote set-active)) (set-active box nil)) box) (let ((box (om-load-boxcall (quote lispfun) "FIRST" (quote first) (quote ((om-load-inputfun (quote input-funbox) "LIST" "LIST" nil))) (om-make-point 511 548) nil nil nil nil 1))) (when (fboundp (quote set-active)) (set-active box nil)) box) (let ((box (om-load-boxcomment "comment 6" (om-make-point 102 24) (quote "original lists") "" (om-make-point 405 230) nil (om-make-color 0 0 0) (om-make-font "Verdana" 12 :family "Verdana" :style (quote (:plain)) :mode (quote nil))))) (when (fboundp (quote set-active)) (set-active box nil)) box) (let ((box (om-load-boxcomment "comment 5" (om-make-point 296 120) (quote "O-LIST-REPEAT mode 1 takes in a list or list of lists and a desired length.  It then repeats or truncates a list as necessary to fill the desired length of elements specified.  The output includes the tailored list (with repetitions as necessary) and a list of lengths confirming the desired length.") "" (om-make-point 401 65) nil (om-make-color 0 0 0) (om-make-font "Verdana" 12 :family "Verdana" :style (quote (:plain)) :mode (quote nil))))) (when (fboundp (quote set-active)) (set-active box nil)) box) (let ((box (om-load-boxcomment "comment 4" (om-make-point 211 47) (quote "O-LIST-REPEAT (mode 1)") "" (om-make-point 404 25) nil (om-make-color 0 0 0) (om-make-font "Verdana" 12 :family "Verdana" :style (quote (:bold)) :mode (quote nil))))) (when (fboundp (quote set-active)) (set-active box nil)) box) (let ((box (om-load-boxcomment "comment 3" (om-make-point 113 27) (quote "desired length") "" (om-make-point 553 226) nil (om-make-color 0 0 0) (om-make-font "Verdana" 12 :family "Verdana" :style (quote (:plain)) :mode (quote nil))))) (when (fboundp (quote set-active)) (set-active box nil)) box) (let ((box (om-load-boxcall (quote genfun) "Q-ROTATIONS" (quote cnmat:q-rotations) (quote ((om-load-inputfun (quote input-funbox) "a list of values" "DURATIONS" (list 1 2 3)))) (om-make-point 406 311) nil nil nil nil 1))) (when (fboundp (quote set-active)) (set-active box nil)) box) (let ((box (om-load-boxcall (quote bastype) "list" (quote list) (quote nil) (om-make-point 412 267) (om-make-point 60 30) (list 1 2 3 5) "(1 2 3 5)" nil))) (when (fboundp (quote set-active)) (set-active box nil)) box) (let ((box (om-load-boxcall (quote bastype) "aux 3" (quote t) (quote nil) (om-make-point 565 264) (om-make-point 34 30) 19 "19" nil))) (when (fboundp (quote set-active)) (set-active box nil)) box) (let ((box (om-load-boxcall (quote genfun) "O-LIST-REPEAT 2" (quote cnmat:o-list-repeat) (quote ((om-load-inputfun (quote input-funbox) "a list of lists" "MY-LIST" (list (list 1 2 3) (list 34 45))) (om-load-inputfun (quote input-funbox) "an integer number for number of repetitions" "NO-TIMES" 2) (om-load-inputfun (quote input-funbox) "an integer number for number of repetitions" "MODE" 2))) (om-make-point 542 400) nil nil nil nil 1))) (when (fboundp (quote set-active)) (set-active box nil)) box) (let ((box (om-load-boxcall (quote bastype) "aux 2" (quote t) (quote nil) (om-make-point 723 259) (om-make-point 27 30) 1 "1" nil))) (when (fboundp (quote set-active)) (set-active box nil)) box) (let ((box (om-load-boxcomment "comment" (om-make-point 77 31) (quote "no. times") "" (om-make-point 161 123) nil (om-make-color 0 0 0) (om-make-font "Verdana" 12 :family "Verdana" :style (quote (:plain)) :mode (quote nil))))) (when (fboundp (quote set-active)) (set-active box nil)) box) (let ((box (om-load-boxcomment "comment" (om-make-point 30 30) (quote "list") "" (om-make-point 74 120) nil (om-make-color 0 0 0) (om-make-font "Verdana" 12 :family "Verdana" :style (quote (:plain)) :mode (quote nil))))) (when (fboundp (quote set-active)) (set-active box nil)) box) (let ((box (om-load-boxcall (quote bastype) "aux" (quote t) (quote nil) (om-make-point 162 164) (om-make-point 28 34) 2 "2" nil))) (when (fboundp (quote set-active)) (set-active box nil)) box) (let ((box (om-load-boxcomment "comment 2" (om-make-point 159 28) (quote "O-LIST-REPEAT") "" (om-make-point 68 42) nil (om-make-color 0 0 0) (om-make-font "Verdana" 12 :family "Verdana" :style (quote (:bold)) :mode (quote nil))))) (when (fboundp (quote set-active)) (set-active box nil)) box) (let ((box (om-load-boxcomment "comment" (om-make-point 182 35) (quote "Repeats a list n-times.") "" (om-make-point 71 70) nil (om-make-color 0 0 0) (om-make-font "Verdana" 12 :family "Verdana" :style (quote (:plain)) :mode (quote nil))))) (when (fboundp (quote set-active)) (set-active box nil)) box) (let ((box (om-load-editor-box1 "TEXTFILE 2" (quote textfile) (quote ((om-load-inputfun (quote input-funbox) "object" "self" nil) (om-load-inputfun (quote input-funbox) "input data or text" "exp-list" nil) (om-load-inputfunmenu1 (quote input-funmenu) "append or supersede" "ed-mode" "supersede" (list (list "append" "append") (list "supersede" "supersede"))) (om-load-inputfunmenu1 (quote input-funmenu) "eval interpretation mode" "eval-mode" "list" (list (list "text" "text") (list "data list" "data") (list "list" "list") (list "value" "value"))))) (om-make-point 75 158) (om-make-point 70 50) (load-buffer-textfile (quote ("(45 67 89)" "(732 567)" "" "" "" "" "" "" "" "" "" "" "" "" "" "" "" "" "" "" "" "" "" "" "" "" "" "" "" "" "" "" "" "" "" "" "" "" "" "" "" "" "" "" "")) (quote textfile) "supersede" "list") "x" nil (pairlis (quote (winpos winsize)) (list (om-make-point 10 40) (om-make-point 335 275))) t nil nil nil))) (when (fboundp (quote set-active)) (set-active box nil)) box) (let ((box (om-load-editor-box1 "TEXTFILE" (quote textfile) (quote ((om-load-inputfun (quote input-funbox) "object" "self" nil) (om-load-inputfun (quote input-funbox) "input data or text" "exp-list" nil) (om-load-inputfunmenu1 (quote input-funmenu) "append or supersede" "ed-mode" "supersede" (list (list "append" "append") (list "supersede" "supersede"))) (om-load-inputfunmenu1 (quote input-funmenu) "eval interpretation mode" "eval-mode" "list" (list (list "text" "text") (list "data list" "data") (list "list" "list") (list "value" "value"))))) (om-make-point 79 379) (om-make-point 140 62) (load-buffer-textfile (quote ("(45 67 89 45 67 89)" "(732 567 732 567)" "" "" "" "" "" "" "" "" "" "")) (quote textfile) "supersede" "list") nil nil (pairlis (quote (winpos winsize)) (list (om-make-point 10 40) (om-make-point 335 275))) t nil nil nil))) (when (fboundp (quote set-active)) (set-active box nil)) box) (let ((box (om-load-boxcall (quote genfun) "O-LIST-REPEAT" (quote cnmat:o-list-repeat) (quote ((om-load-inputfun (quote input-funbox) "a list of lists" "MY-LIST" (list (list 1 2 3) (list 34 45))) (om-load-inputfun (quote input-funbox) "an integer number for number of repetitions" "NO-TIMES" 2))) (om-make-point 99 255) nil nil nil nil 1))) (when (fboundp (quote set-active)) (set-active box nil)) box))) (quote ((3 0 2 1 nil 0) (14 0 3 0 nil 0) (6 0 5 1 nil 0) (14 0 6 0 nil 0) (12 0 11 0 nil 0) (11 0 14 0 nil 0) (13 0 14 1 nil 0) (15 0 14 2 nil 0) (23 0 22 1 nil 0) (21 1 23 0 nil 0) (18 0 23 1 nil 0))) nil 6.120003))
