; OM File Header - Saved 2017/05/23 12:27:27
; (6.120003 :patc (om-make-point 24 24) (om-make-point 50 49) (om-make-point 471 625) "" 183 0 nil nil)
; End File Header
(in-package :om)(load-lib-for (quote ("CNMAT-OM")))(setf *om-current-persistent* (om-load-patch1 "q-n-permutations-no-rotations" (quote ((let ((box (om-load-boxcomment "comment 5" (om-make-point 232 31) (quote "Q-N-Permutations-No-Rotations") "" (om-make-point 98 41) nil (om-make-color 0 0 0) (om-make-font "Verdana" 12 :family "Verdana" :style (quote (:bold)) :mode (quote nil))))) (when (fboundp (quote set-active)) (set-active box nil)) box) (let ((box (om-load-boxcomment "comment 4" (om-make-point 302 69) (quote "Returns a specified number of permutations from a given list such that none of the returned lists are rotations of one another.") "" (om-make-point 99 70) nil (om-make-color 0 0 0) (om-make-font "Verdana" 12 :family "Verdana" :style (quote (:plain)) :mode (quote nil))))) (when (fboundp (quote set-active)) (set-active box nil)) box) (let ((box (om-load-boxcomment "comment 3" (om-make-point 126 27) (quote "original list") "" (om-make-point 114 143) nil (om-make-color 0 0 0) (om-make-font "Verdana" 12 :family "Verdana" :style (quote (:plain)) :mode (quote nil))))) (when (fboundp (quote set-active)) (set-active box nil)) box) (let ((box (om-load-boxcomment "comment 2" (om-make-point 150 29) (quote "no. of results desired") "" (om-make-point 271 144) nil (om-make-color 0 0 0) (om-make-font "Verdana" 12 :family "Verdana" :style (quote (:plain)) :mode (quote nil))))) (when (fboundp (quote set-active)) (set-active box nil)) box) (let ((box (om-load-boxcall (quote bastype) "aux 2" (quote t) (quote nil) (om-make-point 275 179) (om-make-point 34 30) 10 "10" nil))) (when (fboundp (quote set-active)) (set-active box nil)) box) (let ((box (om-load-boxcall (quote bastype) "aux" (quote t) (quote nil) (om-make-point 117 179) (om-make-point 80 30) (list 1 2 3 4 5) "(1 2 3 4 5)" nil))) (when (fboundp (quote set-active)) (set-active box nil)) box) (let ((box (om-load-editor-box1 "TEXTFILE" (quote textfile) (quote ((om-load-inputfun (quote input-funbox) "object" "self" nil) (om-load-inputfun (quote input-funbox) "input data or text" "exp-list" nil) (om-load-inputfunmenu1 (quote input-funmenu) "append or supersede" "ed-mode" "supersede" (list (list "append" "append") (list "supersede" "supersede"))) (om-load-inputfunmenu1 (quote input-funmenu) "eval interpretation mode" "eval-mode" "list" (list (list "text" "text") (list "data list" "data") (list "list" "list") (list "value" "value"))))) (om-make-point 105 342) (om-make-point 194 158) (load-buffer-textfile (quote ("(1 4 2 5 3)" "(1 3 2 4 5)" "(2 4 1 3 5)" "(5 1 2 3 4)" "(5 1 3 4 2)" "(5 2 3 4 1)" "(4 5 2 3 1)" "(1 2 5 3 4)" "(4 3 5 1 2)" "(1 5 3 2 4)" "" "" "" "")) (quote textfile) "supersede" "list") nil nil (pairlis (quote (winpos winsize)) (list (om-make-point 10 40) (om-make-point 335 275))) t nil nil nil))) (when (fboundp (quote set-active)) (set-active box nil)) box) (let ((box (om-load-boxcomment "comment" (om-make-point 256 89) (quote "N.B. if the no. of results desired is > the no. of possible results the computer then the computer will keep searching for results and return none.") "" (om-make-point 99 518) nil (om-make-color 0 0 0) (om-make-font "Verdana" 12 :family "Verdana" :style (quote (:plain)) :mode (quote nil))))) (when (fboundp (quote set-active)) (set-active box nil)) box) (let ((box (om-load-boxcall (quote genfun) "Q-N-PERMUTATIONS-NO-ROTATIONS" (quote cnmat:q-n-permutations-no-rotations) (quote ((om-load-inputfun (quote input-funbox) "a list for permuting" "MYLIST" (list 1 2 3 4 5)) (om-load-inputfun (quote input-funbox) "the number of permutations desired" "NUM-RESULTS" 4))) (om-make-point 96 256) nil nil nil nil 1))) (when (fboundp (quote set-active)) (set-active box nil)) box))) (quote ((8 0 6 1 nil 0) (5 0 8 0 nil 0) (4 0 8 1 nil 0))) nil 6.120003))
