; OM File Header - Saved 2017/05/25 15:14:34
; (6.120003 :patc (om-make-point 24 24) (om-make-point 43 23) (om-make-point 1369 831) "" 183 0 nil "2017/05/25 15:09:53")
; End File Header
(in-package :om)(load-lib-for (quote ("CNMAT-OM")))(setf *om-current-persistent* (om-load-patch1 "r-diminutions" (quote ((let ((box (om-load-boxcomment "comment" (om-make-point 100 60) (quote "EXAMPLE 2") nil (om-make-point 783 447) nil (om-make-color 0 0 0) (om-make-font "Verdana" 14.0D0 :family "Verdana" :style (quote (:bold)) :mode (quote nil))))) (when (fboundp (quote set-active)) (set-active box nil)) box) (let ((box (om-load-boxcall (quote bastype) "aux 8" (quote t) (quote nil) (om-make-point 914 412) (om-make-point 59 30) (list 3 4 6) "(3 4 6)" nil))) (when (fboundp (quote set-active)) (set-active box nil)) box) (let ((box (om-load-editor-box1 "PRF 2" (quote cnmat:prf) (quote ((om-load-inputfun (quote input-funbox) "object" "self" nil) (om-load-inputfun (quote input-funbox) "" "voices" nil))) (om-make-point 849 204) (om-make-point 190 156) (if (find-class (quote cnmat:prf) nil) (make-instance (quote cnmat:prf) :voices (list (if (find-class (quote cnmat::rhythmic-frame) nil) (make-instance (quote cnmat::rhythmic-frame) :pulses (list 2 3 4 6) :from-file t)) (if (find-class (quote cnmat::rhythmic-frame) nil) (make-instance (quote cnmat::rhythmic-frame) :pulses (list 3 4 6 2) :from-file t)) (if (find-class (quote cnmat::rhythmic-frame) nil) (make-instance (quote cnmat::rhythmic-frame) :pulses (list 4 6 2 3) :from-file t)) (if (find-class (quote cnmat::rhythmic-frame) nil) (make-instance (quote cnmat::rhythmic-frame) :pulses (list 6 2 3 4) :from-file t))) :from-file t)) "x" nil (pairlis (quote (winsize winpos)) (list (om-make-point 335 275) (om-make-point 10 40))) t nil nil nil))) (when (fboundp (quote set-active)) (set-active box nil)) box) (let ((box (om-load-editor-box1 "PRF" (quote cnmat:prf) (quote ((om-load-inputfun (quote input-funbox) "object" "self" nil) (om-load-inputfun (quote input-funbox) "" "voices" nil))) (om-make-point 866 532) (om-make-point 190 156) (if (find-class (quote cnmat:prf) nil) (make-instance (quote cnmat:prf) :voices (list (if (find-class (quote cnmat::rhythmic-frame) nil) (make-instance (quote cnmat::rhythmic-frame) :pulses (list -2 1 2 1 3 3 3) :from-file t)) (if (find-class (quote cnmat::rhythmic-frame) nil) (make-instance (quote cnmat::rhythmic-frame) :pulses (list 3 4 6 -2) :from-file t)) (if (find-class (quote cnmat::rhythmic-frame) nil) (make-instance (quote cnmat::rhythmic-frame) :pulses (list 3 1 3 3 -2 1 1 1) :from-file t)) (if (find-class (quote cnmat::rhythmic-frame) nil) (make-instance (quote cnmat::rhythmic-frame) :pulses (list 3 3 -2 2 1 3 1) :from-file t))) :from-file t)) nil nil (pairlis (quote (winsize winpos)) (list (om-make-point 335 275) (om-make-point 10 40))) t nil nil nil))) (when (fboundp (quote set-active)) (set-active box nil)) box) (let ((box (om-load-boxcomment "comment" (om-make-point 45 28) (quote "values") "" (om-make-point 914 378) nil (om-make-color 0 0 0) (om-make-font "Verdana" 12 :family "Verdana" :style (quote (:plain)) :mode (quote nil))))) (when (fboundp (quote set-active)) (set-active box nil)) box) (let ((box (om-load-boxcomment "comment" (om-make-point 118 24) (quote "diminutions") "" (om-make-point 1005 382) nil (om-make-color 0 0 0) (om-make-font "Verdana" 12 :family "Verdana" :style (quote (:plain)) :mode (quote nil))))) (when (fboundp (quote set-active)) (set-active box nil)) box) (let ((box (om-load-boxcall (quote lispfun) "R-INTERLEAVE" (quote cnmat:r-interleave) (quote ((om-load-inputfun (quote input-funbox) "RHYTHM-PARENT" "RHYTHM-PARENT" nil) (om-load-inputfun (quote input-funbox) "RHYTHM-CHILD" "RHYTHM-CHILD" nil))) (om-make-point 1158 380) nil nil nil nil 1))) (when (fboundp (quote set-active)) (set-active box nil)) box) (let ((box (om-load-editor-box1 "PRF" (quote cnmat:prf) (quote ((om-load-inputfun (quote input-funbox) "object" "self" nil) (om-load-inputfun (quote input-funbox) "" "voices" nil))) (om-make-point 1161 425) (om-make-point 326 272) (if (find-class (quote cnmat:prf) nil) (make-instance (quote cnmat:prf) :voices (list (if (find-class (quote cnmat::rhythmic-frame) nil) (make-instance (quote cnmat::rhythmic-frame) :pulses (list 2 3 4 6) :from-file t)) (if (find-class (quote cnmat::rhythmic-frame) nil) (make-instance (quote cnmat::rhythmic-frame) :pulses (list -2 1 2 1 3 3 3) :from-file t)) (if (find-class (quote cnmat::rhythmic-frame) nil) (make-instance (quote cnmat::rhythmic-frame) :pulses (list 3 4 6 2) :from-file t)) (if (find-class (quote cnmat::rhythmic-frame) nil) (make-instance (quote cnmat::rhythmic-frame) :pulses (list 3 4 6 -2) :from-file t)) (if (find-class (quote cnmat::rhythmic-frame) nil) (make-instance (quote cnmat::rhythmic-frame) :pulses (list 4 6 2 3) :from-file t)) (if (find-class (quote cnmat::rhythmic-frame) nil) (make-instance (quote cnmat::rhythmic-frame) :pulses (list 3 1 3 3 -2 1 1 1) :from-file t)) (if (find-class (quote cnmat::rhythmic-frame) nil) (make-instance (quote cnmat::rhythmic-frame) :pulses (list 6 2 3 4) :from-file t)) (if (find-class (quote cnmat::rhythmic-frame) nil) (make-instance (quote cnmat::rhythmic-frame) :pulses (list 3 3 -2 2 1 3 1) :from-file t))) :from-file t)) "x" nil (pairlis (quote (winsize winpos)) (list (om-make-point 335 275) (om-make-point 10 40))) t nil nil nil))) (when (fboundp (quote set-active)) (set-active box nil)) box) (let ((box (om-load-boxcomment "comment" (om-make-point 208 28) (quote "Interleaved parent-child pairs") "" (om-make-point 1238 384) nil (om-make-color 0 0 0) (om-make-font "Verdana" 12 :family "Verdana" :style (quote (:plain)) :mode (quote nil))))) (when (fboundp (quote set-active)) (set-active box nil)) box) (let ((box (om-load-boxcall (quote genfun) "R-DIMINUTIONS 3" (quote cnmat:r-diminutions) (quote ((om-load-inputfun (quote input-funbox) "" "RHYTHM" nil) (om-load-inputfun (quote input-funbox) "" "VAL" nil) (om-load-inputfun (quote input-funbox) "" "SUBS" nil))) (om-make-point 890 454) nil nil nil nil 1))) (when (fboundp (quote set-active)) (set-active box nil)) box) (let ((box (om-load-boxcomment "comment" (om-make-point 100 60) (quote "EXAMPLE 1") nil (om-make-point 29 441) nil (om-make-color 0 0 0) (om-make-font "Verdana" 14.0D0 :family "Verdana" :style (quote (:bold)) :mode (quote nil))))) (when (fboundp (quote set-active)) (set-active box nil)) box) (let ((box (om-load-editor-box1 "TEXTFILE" (quote textfile) (quote ((om-load-inputfun (quote input-funbox) "object" "self" nil) (om-load-inputfun (quote input-funbox) "input data or text" "exp-list" nil) (om-load-inputfunmenu1 (quote input-funmenu) "append or supersede" "ed-mode" "supersede" (list (list "append" "append") (list "supersede" "supersede"))) (om-load-inputfunmenu1 (quote input-funmenu) "eval interpretation mode" "eval-mode" "list" (list (list "text" "text") (list "data list" "data") (list "list" "list") (list "value" "value"))))) (om-make-point 1007 407) (om-make-point 130 80) (load-buffer-textfile (quote ("(0 (1 2) (1 3) (3 3))" "(1 (3) (4) (6) )" "(2 (1 1 1) (3 1) (3 3))" "(3 (2 1) (3 1) (3 3))" "" "" "" "" "" "" "" "" "" "" "" "" "" "" "" "" "" "" "" "" "" "" "" "" "" "" "" "")) (quote textfile) "supersede" "list") "x" nil (pairlis (quote (winsize winpos)) (list (om-make-point 335 275) (om-make-point 10 40))) t nil nil nil))) (when (fboundp (quote set-active)) (set-active box nil)) box) (let ((box (om-load-boxcall (quote bastype) "aux 8" (quote t) (quote nil) (om-make-point 158 408) (om-make-point 59 30) (list 3 4 6) "(3 4 6)" nil))) (when (fboundp (quote set-active)) (set-active box nil)) box) (let ((box (om-load-editor-box1 "TEXTFILE" (quote textfile) (quote ((om-load-inputfun (quote input-funbox) "object" "self" nil) (om-load-inputfun (quote input-funbox) "input data or text" "exp-list" nil) (om-load-inputfunmenu1 (quote input-funmenu) "append or supersede" "ed-mode" "supersede" (list (list "append" "append") (list "supersede" "supersede"))) (om-load-inputfunmenu1 (quote input-funmenu) "eval interpretation mode" "eval-mode" "list" (list (list "text" "text") (list "data list" "data") (list "list" "list") (list "value" "value"))))) (om-make-point 251 400) (om-make-point 130 80) (load-buffer-textfile (quote ("(1 2) (1 3) (3 3)" "" "" "" "" "" "" "" "" "" "" "" "" "" "" "" "" "" "" "" "" "" "" "" "" "" "" "")) (quote textfile) "supersede" "list") "x" nil (pairlis (quote (winsize winpos)) (list (om-make-point 335 275) (om-make-point 10 40))) t nil nil nil))) (when (fboundp (quote set-active)) (set-active box nil)) box) (let ((box (om-load-boxcall (quote genfun) "R-DIMINUTIONS 3" (quote cnmat:r-diminutions) (quote ((om-load-inputfun (quote input-funbox) "" "RHYTHM" nil) (om-load-inputfun (quote input-funbox) "" "VAL" nil) (om-load-inputfun (quote input-funbox) "" "SUBS" nil))) (om-make-point 134 450) nil nil nil nil 1))) (when (fboundp (quote set-active)) (set-active box nil)) box) (let ((box (om-load-boxcall (quote genfun) "Q-ROTATIONS" (quote cnmat:q-rotations) (quote ((om-load-inputfun (quote input-funbox) "a list of values" "DURATIONS" (list 1 2 3)))) (om-make-point 91 105) nil nil nil nil 1))) (when (fboundp (quote set-active)) (set-active box nil)) box) (let ((box (om-load-boxcomment "comment" (om-make-point 208 28) (quote "Interleaved parent-child pairs") "" (om-make-point 514 387) nil (om-make-color 0 0 0) (om-make-font "Verdana" 12 :family "Verdana" :style (quote (:plain)) :mode (quote nil))))) (when (fboundp (quote set-active)) (set-active box nil)) box) (let ((box (om-load-editor-box1 "PRF" (quote cnmat:prf) (quote ((om-load-inputfun (quote input-funbox) "object" "self" nil) (om-load-inputfun (quote input-funbox) "" "voices" nil))) (om-make-point 448 432) (om-make-point 326 272) (if (find-class (quote cnmat:prf) nil) (make-instance (quote cnmat:prf) :voices (list (if (find-class (quote cnmat::rhythmic-frame) nil) (make-instance (quote cnmat::rhythmic-frame) :pulses (list 2 3 4 6) :from-file t)) (if (find-class (quote cnmat::rhythmic-frame) nil) (make-instance (quote cnmat::rhythmic-frame) :pulses (list -2 1 2 1 3 3 3) :from-file t)) (if (find-class (quote cnmat::rhythmic-frame) nil) (make-instance (quote cnmat::rhythmic-frame) :pulses (list 3 4 6 2) :from-file t)) (if (find-class (quote cnmat::rhythmic-frame) nil) (make-instance (quote cnmat::rhythmic-frame) :pulses (list 3 4 6 -2) :from-file t)) (if (find-class (quote cnmat::rhythmic-frame) nil) (make-instance (quote cnmat::rhythmic-frame) :pulses (list 4 6 2 3) :from-file t)) (if (find-class (quote cnmat::rhythmic-frame) nil) (make-instance (quote cnmat::rhythmic-frame) :pulses (list 3 1 3 3 -2 1 1 1) :from-file t)) (if (find-class (quote cnmat::rhythmic-frame) nil) (make-instance (quote cnmat::rhythmic-frame) :pulses (list 6 2 3 4) :from-file t)) (if (find-class (quote cnmat::rhythmic-frame) nil) (make-instance (quote cnmat::rhythmic-frame) :pulses (list 3 3 -2 2 1 3 1) :from-file t))) :from-file t)) "x" nil (pairlis (quote (winsize winpos)) (list (om-make-point 335 275) (om-make-point 10 40))) t nil nil nil))) (when (fboundp (quote set-active)) (set-active box nil)) box) (let ((box (om-load-boxcall (quote lispfun) "R-INTERLEAVE" (quote cnmat:r-interleave) (quote ((om-load-inputfun (quote input-funbox) "RHYTHM-PARENT" "RHYTHM-PARENT" nil) (om-load-inputfun (quote input-funbox) "RHYTHM-CHILD" "RHYTHM-CHILD" nil))) (om-make-point 436 389) nil nil nil nil 1))) (when (fboundp (quote set-active)) (set-active box nil)) box) (let ((box (om-load-boxcomment "comment" (om-make-point 89 23) (quote "diminutions") "" (om-make-point 246 377) nil (om-make-color 0 0 0) (om-make-font "Verdana" 12 :family "Verdana" :style (quote (:plain)) :mode (quote nil))))) (when (fboundp (quote set-active)) (set-active box nil)) box) (let ((box (om-load-boxcomment "comment" (om-make-point 45 28) (quote "values") "" (om-make-point 158 374) nil (om-make-color 0 0 0) (om-make-font "Verdana" 12 :family "Verdana" :style (quote (:plain)) :mode (quote nil))))) (when (fboundp (quote set-active)) (set-active box nil)) box) (let ((box (om-load-boxcomment "comment" (om-make-point 578 194) (quote "Like r-substitutions object, r-diminutions replaces a rhythmic value with subset values (diminutions)  that sum to the original value. $$In example 1, the values list is given diminutions in the order listed and across all voices.$$In example 2, the values list is given different diminutions per voice, which dimunitions are defined according to specific voices starting with voice 0.$$R-diminutions will only show the diminutions in the rhythmic frame and all other values will be made into rests.$$You can also use r-substitute, mode=1, for similar results to r-diminutions.") "" (om-make-point 333 53) nil (om-make-color 0 0 0) (om-make-font "Verdana" 12 :family "Verdana" :style (quote (:plain)) :mode (quote nil))))) (when (fboundp (quote set-active)) (set-active box nil)) box) (let ((box (om-load-boxcomment "comment" (om-make-point 151 26) (quote "R-DIMINUTIONS") "" (om-make-point 329 24) nil (om-make-color 0 0 0) (om-make-font "Verdana" 12 :family "Verdana" :style (quote (:bold)) :mode (quote nil))))) (when (fboundp (quote set-active)) (set-active box nil)) box) (let ((box (om-load-editor-box1 "PRF" (quote cnmat:prf) (quote ((om-load-inputfun (quote input-funbox) "object" "self" nil) (om-load-inputfun (quote input-funbox) "" "voices" nil))) (om-make-point 110 528) (om-make-point 190 156) (if (find-class (quote cnmat:prf) nil) (make-instance (quote cnmat:prf) :voices (list (if (find-class (quote cnmat::rhythmic-frame) nil) (make-instance (quote cnmat::rhythmic-frame) :pulses (list -2 1 2 1 3 3 3) :from-file t)) (if (find-class (quote cnmat::rhythmic-frame) nil) (make-instance (quote cnmat::rhythmic-frame) :pulses (list 1 2 1 3 3 3 -2) :from-file t)) (if (find-class (quote cnmat::rhythmic-frame) nil) (make-instance (quote cnmat::rhythmic-frame) :pulses (list 1 3 3 3 -2 1 2) :from-file t)) (if (find-class (quote cnmat::rhythmic-frame) nil) (make-instance (quote cnmat::rhythmic-frame) :pulses (list 3 3 -2 1 2 1 3) :from-file t))) :from-file t)) nil nil (pairlis (quote (winsize winpos)) (list (om-make-point 335 275) (om-make-point 10 40))) t nil nil nil))) (when (fboundp (quote set-active)) (set-active box nil)) box) (let ((box (om-load-boxcall (quote bastype) "list" (quote list) (quote nil) (om-make-point 92 64) (om-make-point 70 30) (list 2 3 4 6) "(2 3 4 6)" nil))) (when (fboundp (quote set-active)) (set-active box nil)) box) (let ((box (om-load-editor-box1 "PRF 2" (quote cnmat:prf) (quote ((om-load-inputfun (quote input-funbox) "object" "self" nil) (om-load-inputfun (quote input-funbox) "" "voices" nil))) (om-make-point 93 200) (om-make-point 190 156) (if (find-class (quote cnmat:prf) nil) (make-instance (quote cnmat:prf) :voices (list (if (find-class (quote cnmat::rhythmic-frame) nil) (make-instance (quote cnmat::rhythmic-frame) :pulses (list 2 3 4 6) :from-file t)) (if (find-class (quote cnmat::rhythmic-frame) nil) (make-instance (quote cnmat::rhythmic-frame) :pulses (list 3 4 6 2) :from-file t)) (if (find-class (quote cnmat::rhythmic-frame) nil) (make-instance (quote cnmat::rhythmic-frame) :pulses (list 4 6 2 3) :from-file t)) (if (find-class (quote cnmat::rhythmic-frame) nil) (make-instance (quote cnmat::rhythmic-frame) :pulses (list 6 2 3 4) :from-file t))) :from-file t)) nil nil (pairlis (quote (winsize winpos)) (list (om-make-point 335 275) (om-make-point 10 40))) t nil nil nil))) (when (fboundp (quote set-active)) (set-active box nil)) box))) (quote ((9 0 3 0 nil 0) (2 1 6 0 nil 0) (3 1 6 1 ((om-make-point 990 686) (om-make-point 1149 681) (om-make-point 1143 376) (om-make-point 1206 375) (om-make-point 1206 380)) 0) (6 0 7 1 nil 0) (2 0 9 0 nil 0) (1 0 9 1 nil 0) (11 1 9 2 nil 0) (25 0 14 0 nil 0) (12 0 14 1 nil 0) (13 1 14 2 nil 0) (24 0 15 0 nil 0) (18 0 17 1 nil 0) (25 1 18 0 nil 0) (23 1 18 1 ((om-make-point 234 682) (om-make-point 429 682) (om-make-point 428 385) (om-make-point 488 384) (om-make-point 484 389)) 0) (14 0 23 0 nil 0) (15 0 25 1 nil 0))) nil 6.120003))
