; OM File Header - Saved 2017/04/08 15:35:00
; (6.110001 :patc (om-make-point 118 60) (om-make-point 0 92) (om-make-point 1440 636) "" 183 0 nil "2017/04/08 15:35:00")
; End File Header
(in-package :om)(load-lib-for (quote ("CNMAT-OM")))(setf *om-current-persistent* (om-load-patch1 "r-polyrhythmic-frame-right" (quote ((let ((box (om-load-boxcall (quote lispfun) "LIST" (quote list) (quote ((om-load-inputfun (quote input-funbox) "add-input" "add-input" nil) (om-load-inputfun (quote input-funbox) "add-input" "add-input" nil))) (om-make-point 1621 250) nil nil nil nil 1))) (when (fboundp (quote set-active)) (set-active box nil)) box) (let ((box (om-load-editor-box1 "PRF 2" (quote cnmat:prf) (quote ((om-load-inputfun (quote input-funbox) "object" "self" nil) (om-load-inputfun (quote input-funbox) "" "voices" nil))) (om-make-point 1426 101) (om-make-point 308 113) (if (find-class (quote cnmat:prf) nil) (make-instance (quote cnmat:prf) :voices (list (if (find-class (quote cnmat::rhythmic-frame) nil) (make-instance (quote cnmat::rhythmic-frame) :pulses (list 12) :from-file t)) (if (find-class (quote cnmat::rhythmic-frame) nil) (make-instance (quote cnmat::rhythmic-frame) :pulses (list 2 10) :from-file t)) (if (find-class (quote cnmat::rhythmic-frame) nil) (make-instance (quote cnmat::rhythmic-frame) :pulses (list 4 8) :from-file t))) :from-file t)) "x" nil (pairlis (quote (winsize winpos)) (list (om-make-point 335 275) (om-make-point 510 420))) t nil nil nil))) (when (fboundp (quote set-active)) (set-active box nil)) box) (let ((box (om-load-editor-box1 "PRF 3" (quote cnmat:prf) (quote ((om-load-inputfun (quote input-funbox) "object" "self" nil) (om-load-inputfun (quote input-funbox) "" "voices" nil))) (om-make-point 1769 103) (om-make-point 301 104) (if (find-class (quote cnmat:prf) nil) (make-instance (quote cnmat:prf) :voices (list (if (find-class (quote cnmat::rhythmic-frame) nil) (make-instance (quote cnmat::rhythmic-frame) :pulses (list 2 4 6) :from-file t)) (if (find-class (quote cnmat::rhythmic-frame) nil) (make-instance (quote cnmat::rhythmic-frame) :pulses (list 3 4 5) :from-file t)) (if (find-class (quote cnmat::rhythmic-frame) nil) (make-instance (quote cnmat::rhythmic-frame) :pulses (list 1 2 3 6) :from-file t))) :from-file t)) "x" nil (pairlis (quote (winsize winpos)) (list (om-make-point 335 275) (om-make-point 10 40))) t nil nil nil))) (when (fboundp (quote set-active)) (set-active box nil)) box) (let ((box (om-load-editor-box1 "PRF 2" (quote cnmat:prf) (quote ((om-load-inputfun (quote input-funbox) "object" "self" nil) (om-load-inputfun (quote input-funbox) "" "voices" nil))) (om-make-point 1416 328) (om-make-point 325 188) (if (find-class (quote cnmat:prf) nil) (make-instance (quote cnmat:prf) :voices (list (if (find-class (quote cnmat:prf) nil) (make-instance (quote cnmat:prf) :voices (list (if (find-class (quote cnmat::rhythmic-frame) nil) (make-instance (quote cnmat::rhythmic-frame) :pulses (list 12) :from-file t)) (if (find-class (quote cnmat::rhythmic-frame) nil) (make-instance (quote cnmat::rhythmic-frame) :pulses (list 2 10) :from-file t)) (if (find-class (quote cnmat::rhythmic-frame) nil) (make-instance (quote cnmat::rhythmic-frame) :pulses (list 4 8) :from-file t))) :from-file t)) (if (find-class (quote cnmat:prf) nil) (make-instance (quote cnmat:prf) :voices (list (if (find-class (quote cnmat::rhythmic-frame) nil) (make-instance (quote cnmat::rhythmic-frame) :pulses (list 2 4 6) :from-file t)) (if (find-class (quote cnmat::rhythmic-frame) nil) (make-instance (quote cnmat::rhythmic-frame) :pulses (list 3 4 5) :from-file t)) (if (find-class (quote cnmat::rhythmic-frame) nil) (make-instance (quote cnmat::rhythmic-frame) :pulses (list 1 2 3 6) :from-file t))) :from-file t))) :from-file t)) nil nil (pairlis (quote (winsize winpos)) (list (om-make-point 335 275) (om-make-point 510 420))) t nil nil nil))) (when (fboundp (quote set-active)) (set-active box nil)) box) (let ((box (om-load-boxcomment "comment 2" (om-make-point 371 33) (quote "Concatenate polyrhythmic frames using a list.") "" (om-make-point 1423 36) nil (om-make-color 0 0 0) (om-make-font "Verdana" 12 :family "Verdana" :style (quote (:plain)) :mode (quote nil))))) (when (fboundp (quote set-active)) (set-active box nil)) box) (let ((box (om-load-editor-box1 "PRF 2" (quote cnmat:prf) (quote ((om-load-inputfun (quote input-funbox) "object" "self" nil) (om-load-inputfun (quote input-funbox) "" "voices" nil))) (om-make-point 722 326) (om-make-point 325 188) (if (find-class (quote cnmat:prf) nil) (make-instance (quote cnmat:prf) :voices (list (if (find-class (quote cnmat::rhythmic-frame) nil) (make-instance (quote cnmat::rhythmic-frame) :pulses (list 12) :from-file t)) (if (find-class (quote cnmat::rhythmic-frame) nil) (make-instance (quote cnmat::rhythmic-frame) :pulses (list 2 4 6) :from-file t)) (if (find-class (quote cnmat::rhythmic-frame) nil) (make-instance (quote cnmat::rhythmic-frame) :pulses (list 2 10) :from-file t)) (if (find-class (quote cnmat::rhythmic-frame) nil) (make-instance (quote cnmat::rhythmic-frame) :pulses (list 3 4 5) :from-file t)) (if (find-class (quote cnmat::rhythmic-frame) nil) (make-instance (quote cnmat::rhythmic-frame) :pulses (list 4 8) :from-file t)) (if (find-class (quote cnmat::rhythmic-frame) nil) (make-instance (quote cnmat::rhythmic-frame) :pulses (list 1 2 3 6) :from-file t))) :from-file t)) nil nil (pairlis (quote (winsize winpos)) (list (om-make-point 335 275) (om-make-point 510 420))) t nil nil nil))) (when (fboundp (quote set-active)) (set-active box nil)) box) (let ((box (om-load-boxcall (quote lispfun) "R-INTERLEAVE" (quote cnmat:r-interleave) (quote ((om-load-inputfun (quote input-funbox) "RHYTHM-PARENT" "RHYTHM-PARENT" nil) (om-load-inputfun (quote input-funbox) "add-input" "add-input" nil))) (om-make-point 894 251) nil nil nil nil 1))) (when (fboundp (quote set-active)) (set-active box nil)) box) (let ((box (om-load-editor-box1 "PRF 3" (quote cnmat:prf) (quote ((om-load-inputfun (quote input-funbox) "object" "self" nil) (om-load-inputfun (quote input-funbox) "" "voices" nil))) (om-make-point 1067 101) (om-make-point 301 104) (if (find-class (quote cnmat:prf) nil) (make-instance (quote cnmat:prf) :voices (list (if (find-class (quote cnmat::rhythmic-frame) nil) (make-instance (quote cnmat::rhythmic-frame) :pulses (list 2 4 6) :from-file t)) (if (find-class (quote cnmat::rhythmic-frame) nil) (make-instance (quote cnmat::rhythmic-frame) :pulses (list 3 4 5) :from-file t)) (if (find-class (quote cnmat::rhythmic-frame) nil) (make-instance (quote cnmat::rhythmic-frame) :pulses (list 1 2 3 6) :from-file t))) :from-file t)) "x" nil (pairlis (quote (winsize winpos)) (list (om-make-point 335 275) (om-make-point 10 40))) t nil nil nil))) (when (fboundp (quote set-active)) (set-active box nil)) box) (let ((box (om-load-editor-box1 "PRF 2" (quote cnmat:prf) (quote ((om-load-inputfun (quote input-funbox) "object" "self" nil) (om-load-inputfun (quote input-funbox) "" "voices" nil))) (om-make-point 724 99) (om-make-point 308 113) (if (find-class (quote cnmat:prf) nil) (make-instance (quote cnmat:prf) :voices (list (if (find-class (quote cnmat::rhythmic-frame) nil) (make-instance (quote cnmat::rhythmic-frame) :pulses (list 12) :from-file t)) (if (find-class (quote cnmat::rhythmic-frame) nil) (make-instance (quote cnmat::rhythmic-frame) :pulses (list 2 10) :from-file t)) (if (find-class (quote cnmat::rhythmic-frame) nil) (make-instance (quote cnmat::rhythmic-frame) :pulses (list 4 8) :from-file t))) :from-file t)) "x" nil (pairlis (quote (winsize winpos)) (list (om-make-point 335 275) (om-make-point 510 420))) t nil nil nil))) (when (fboundp (quote set-active)) (set-active box nil)) box) (let ((box (om-load-boxcomment "comment" (om-make-point 371 33) (quote "Interleave voices in a polyrhythmic frame with r-interleave.") "" (om-make-point 719 36) nil (om-make-color 0 0 0) (om-make-font "Verdana" 12 :family "Verdana" :style (quote (:plain)) :mode (quote nil))))) (when (fboundp (quote set-active)) (set-active box nil)) box) (let ((box (om-load-boxcomment "comment" (om-make-point 198 242) (quote "PRF-Polyrhythmic frame:$$Visualize rhythmic sequences.$$To print a polyrhythmic frame: double click on the object and use command-p to print.$$To delete a voices from a polyrhythmic frame: double click on the object, select a line, and hit delete.$$") "" (om-make-point 441 115) nil (om-make-color 0 0 0) (om-make-font "Verdana" 12 :family "Verdana" :style (quote (:plain)) :mode (quote nil))))) (when (fboundp (quote set-active)) (set-active box nil)) box) (let ((box (om-load-boxcomment "comment" (om-make-point 202 38) (quote "PRF-Polyrhythmic frame") "" (om-make-point 75 41) nil (om-make-color 0 0 0) (om-make-font "Verdana" 12 :family "Verdana" :style (quote (:bold)) :mode (quote nil))))) (when (fboundp (quote set-active)) (set-active box nil)) box) (let ((box (om-load-editor-box1 "PRF" (quote cnmat:prf) (quote ((om-load-inputfun (quote input-funbox) "object" "self" nil) (om-load-inputfun (quote input-funbox) "" "voices" nil))) (om-make-point 77 110) (om-make-point 329 266) (if (find-class (quote cnmat:prf) nil) (make-instance (quote cnmat:prf) :voices (list (if (find-class (quote cnmat::rhythmic-frame) nil) (make-instance (quote cnmat::rhythmic-frame) :pulses (list 12) :from-file t)) (if (find-class (quote cnmat::rhythmic-frame) nil) (make-instance (quote cnmat::rhythmic-frame) :pulses (list 2 10) :from-file t)) (if (find-class (quote cnmat::rhythmic-frame) nil) (make-instance (quote cnmat::rhythmic-frame) :pulses (list 4 8) :from-file t)) (if (find-class (quote cnmat::rhythmic-frame) nil) (make-instance (quote cnmat::rhythmic-frame) :pulses (list 2 4 6) :from-file t)) (if (find-class (quote cnmat::rhythmic-frame) nil) (make-instance (quote cnmat::rhythmic-frame) :pulses (list 3 4 5) :from-file t)) (if (find-class (quote cnmat::rhythmic-frame) nil) (make-instance (quote cnmat::rhythmic-frame) :pulses (list 1 2 3 6) :from-file t)) (if (find-class (quote cnmat::rhythmic-frame) nil) (make-instance (quote cnmat::rhythmic-frame) :pulses (list 1 2 4 5) :from-file t))) :from-file t)) "x" nil (pairlis (quote (winsize winpos)) (list (om-make-point 335 275) (om-make-point 10 40))) t nil nil nil))) (when (fboundp (quote set-active)) (set-active box nil)) box))) (quote ((1 1 0 0 nil 0) (2 1 0 1 nil 0) (0 0 3 1 nil 0) (6 0 5 1 nil 0) (8 1 6 0 nil 0) (7 1 6 1 nil 0))) nil 6.110001))
