; OM File Header - Saved 2016/07/13 17:43:44
; (6.1001 :patc (om-make-point 1021 272) (om-make-point 0 23) (om-make-point 1440 851) "" 183 0 "2016/07/12 16:41:43" "2016/07/13 17:43:22")
; End File Header
(in-package :om)(load-lib-for (quote ("CNMAT-OM")))(setf *om-current-persistent* (om-load-patch1 "2b-other combination utilities 2" (quote ((let ((box (om-load-boxcomment "comment" (om-make-point 179 29) (quote "<--function output") nil (om-make-point 1208 650) nil (om-make-color 0 0 0) (om-make-font "Verdana" 12 :family "Verdana" :style (quote (:bold)) :mode (quote nil))))) (when (fboundp (quote set-active)) (set-active box nil)) box) (let ((box (om-load-boxcomment "comment" (om-make-point 268 83) (quote "Another example of default mode using randomly generated lists 5 elements, each element between 0-20.") nil (om-make-point 1003 172) nil (om-make-color 0 0 0) (om-make-font "Verdana" 12 :family "Verdana" :style (quote (:plain)) :mode (quote nil))))) (when (fboundp (quote set-active)) (set-active box nil)) box) (let ((box (om-load-boxcall (quote abstraction) "make 5x5 digit list" (om-load-patch-abs1 "make 5x5 digit list" (quote ((let ((box (om-load-boxout "output" 0 (om-make-point 7 449) (quote ((om-load-inputfun (quote input-funbox) "" "out" nil))) nil nil))) (when (fboundp (quote set-active)) (set-active box nil)) box) (let ((box (om-load-boxcall (quote bastype) "aux" (quote t) (quote nil) (om-make-point 276 303) (om-make-point 27 30) 5 "5" nil))) (when (fboundp (quote set-active)) (set-active box nil)) box) (let ((box (om-load-boxcall (quote genfun) "REPEAT-N" (quote repeat-n) (quote ((om-load-inputfun (quote input-funbox) "something" "SELF" nil) (om-load-inputfun (quote input-funbox) "times" "N" 0))) (om-make-point 244 333) nil nil nil nil 1))) (when (fboundp (quote set-active)) (set-active box nil)) box) (let ((box (om-load-boxcall (quote bastype) "aux 2" (quote t) (quote nil) (om-make-point 124 133) (om-make-point 34 30) 20 "20" nil))) (when (fboundp (quote set-active)) (set-active box nil)) box) (let ((box (om-load-boxcall (quote lispfun) "RANDOM" (quote random) (quote ((om-load-inputfun (quote input-funbox) "ARG" "ARG" nil))) (om-make-point 103 163) nil nil nil nil 1))) (when (fboundp (quote set-active)) (set-active box nil)) box) (let ((box (om-load-boxcall (quote bastype) "aux" (quote t) (quote nil) (om-make-point 180 195) (om-make-point 27 30) 5 "5" nil))) (when (fboundp (quote set-active)) (set-active box nil)) box) (let ((box (om-load-boxcall (quote genfun) "REPEAT-N" (quote repeat-n) (quote ((om-load-inputfun (quote input-funbox) "something" "SELF" nil) (om-load-inputfun (quote input-funbox) "times" "N" 0))) (om-make-point 148 225) nil nil nil nil 1))) (when (fboundp (quote set-active)) (set-active box nil)) box))) (quote ((2 0 0 0 nil 0) (6 0 2 0 nil 0) (1 0 2 1 nil 0) (3 0 4 0 nil 0) (4 0 6 0 nil 0) (5 0 6 1 nil 0))) 6.1001 nil "" (om-make-point 514 189) (om-make-point 400 500)) (quote nil) (om-make-point 1012 245) nil (list (list (list 7 19 4 0 3) (list 6 0 7 15 15) (list 13 14 0 18 7) (list 7 17 15 1 17) (list 12 16 9 14 16))) nil "make 5x5 digit list"))) (when (fboundp (quote set-active)) (set-active box nil)) box) (let ((box (om-load-editor-box1 "TEXTFILE 3" (quote textfile) (quote ((om-load-inputfun (quote input-funbox) "object" "self" nil) (om-load-inputfun (quote input-funbox) "input data or text" "exp-list" nil) (om-load-inputfunmenu1 (quote input-funmenu) "append or supersede" "ed-mode" "supersede" (list (list "append" "append") (list "supersede" "supersede"))) (om-load-inputfunmenu1 (quote input-funmenu) "eval interpretation mode" "eval-mode" "list" (list (list "text" "text") (list "data list" "data") (list "list" "list") (list "value" "value"))))) (om-make-point 976 642) (om-make-point 214 161) (load-buffer-textfile (quote ("((7 17 15 1 17) (12 16 9 14 16))" "((7 17 15 1 17) (12 16 9 14 16))" "((7 17 15 1 17) (12 16 9 14 16))" "((7 17 15 1 17) (12 16 9 14 16))" "((12 16 9 14 16) (7 17 15 1 17))" "")) (quote textfile) "supersede" "list") nil nil (pairlis (quote (winsize winpos)) (list (om-make-point 335 275) (om-make-point 10 40))) t nil nil nil))) (when (fboundp (quote set-active)) (set-active box nil)) box) (let ((box (om-load-editor-box1 "TEXTFILE" (quote textfile) (quote ((om-load-inputfun (quote input-funbox) "object" "self" nil) (om-load-inputfun (quote input-funbox) "input data or text" "exp-list" nil) (om-load-inputfunmenu1 (quote input-funmenu) "append or supersede" "ed-mode" "supersede" (list (list "append" "append") (list "supersede" "supersede"))) (om-load-inputfunmenu1 (quote input-funmenu) "eval interpretation mode" "eval-mode" "list" (list (list "text" "text") (list "data list" "data") (list "list" "list") (list "value" "value"))))) (om-make-point 988 344) (om-make-point 194 158) (load-buffer-textfile (quote ("(7 19 4 0 3)" "(6 0 7 15 15)" "(13 14 0 18 7)" "(7 17 15 1 17)" "(12 16 9 14 16)" "")) (quote textfile) "supersede" "list") nil nil (pairlis (quote (winsize winpos)) (list (om-make-point 335 275) (om-make-point 10 40))) t nil nil nil))) (when (fboundp (quote set-active)) (set-active box nil)) box) (let ((box (om-load-boxcall (quote genfun) "PERMUTATIONS+CANON-GROWTH" (quote cnmat:permutations+canon-growth) (quote ((om-load-inputfun (quote input-funbox) "a list of lists" "MYLIST" (list 1 2 3 4 5)))) (om-make-point 980 548) nil nil nil nil 1))) (when (fboundp (quote set-active)) (set-active box nil)) box) (let ((box (om-load-boxcomment "comment" (om-make-point 241 49) (quote "(lists of lists from the original input$that do not have onset overlaps)") nil (om-make-point 675 475) nil (om-make-color 0 0 0) (om-make-font "Verdana" 12 :family "Verdana" :style (quote (:plain)) :mode (quote nil))))) (when (fboundp (quote set-active)) (set-active box nil)) box) (let ((box (om-load-boxcomment "comment" (om-make-point 440 167) (quote "Provided with a group of lists, iteratively builds output lists with no rhythmic overlaps, except for the onset.$$Builds according to this process: take the first list and check it against the second list.  If there are no attack overlaps add both lists to the output list.  Then check the third list agains this output list. If there are no outputs, combine the third list to the output list and continue. Etc...$$Do this process on each rotation of the original lists provided.$$") nil (om-make-point 510 49) nil (om-make-color 0 0 0) (om-make-font "Verdana" 12 :family "Verdana" :style (quote (:plain)) :mode (quote nil))))) (when (fboundp (quote set-active)) (set-active box nil)) box) (let ((box (om-load-boxcomment "comment" (om-make-point 179 29) (quote "<--list to check") nil (om-make-point 585 576) nil (om-make-color 0 0 0) (om-make-font "Verdana" 12 :family "Verdana" :style (quote (:plain)) :mode (quote nil))))) (when (fboundp (quote set-active)) (set-active box nil)) box) (let ((box (om-load-boxcomment "comment" (om-make-point 202 59) (quote "<--checking elements for onset overlaps in a given list") nil (om-make-point 721 681) nil (om-make-color 0 0 0) (om-make-font "Verdana" 12 :family "Verdana" :style (quote (:plain)) :mode (quote nil))))) (when (fboundp (quote set-active)) (set-active box nil)) box) (let ((box (om-load-editor-box1 "PRF" (quote cnmat::prf) (quote ((om-load-inputfun (quote input-funbox) "object" "self" nil) (om-load-inputfun (quote input-funbox) "" "voices" nil))) (om-make-point 519 672) (om-make-point 190 156) (if (find-class (quote cnmat::prf) nil) (make-instance (quote cnmat::prf) :voices (list (if (find-class (quote cnmat::rhythmic-frame) nil) (make-instance (quote cnmat::rhythmic-frame) :pulses (list 2 3 1) :from-file t)) (if (find-class (quote cnmat::rhythmic-frame) nil) (make-instance (quote cnmat::rhythmic-frame) :pulses (list 3 1 2) :from-file t))) :from-file t)) nil nil (pairlis (quote (winsize winpos)) (list (om-make-point 335 275) (om-make-point 10 40))) t nil nil nil))) (when (fboundp (quote set-active)) (set-active box nil)) box) (let ((box (om-load-boxcall (quote bastype) "aux 3" (quote t) (quote nil) (om-make-point 539 580) (om-make-point 27 30) 3 "3" nil))) (when (fboundp (quote set-active)) (set-active box nil)) box) (let ((box (om-load-boxcall (quote lispfun) "NTH" (quote nth) (quote ((om-load-inputfun (quote input-funbox) "ORIG-N" "ORIG-N" nil) (om-load-inputfun (quote input-funbox) "ORIG-LIST" "ORIG-LIST" nil))) (om-make-point 553 620) nil nil nil nil 1))) (when (fboundp (quote set-active)) (set-active box nil)) box) (let ((box (om-load-boxcomment "comment" (om-make-point 179 29) (quote "<--function output") nil (om-make-point 673 450) nil (om-make-color 0 0 0) (om-make-font "Verdana" 12 :family "Verdana" :style (quote (:bold)) :mode (quote nil))))) (when (fboundp (quote set-active)) (set-active box nil)) box) (let ((box (om-load-boxcomment "comment" (om-make-point 159 28) (quote "starting lists") nil (om-make-point 512 225) nil (om-make-color 0 0 0) (om-make-font "Verdana" 12 :family "Verdana" :style (quote (:plain)) :mode (quote nil))))) (when (fboundp (quote set-active)) (set-active box nil)) box) (let ((box (om-load-editor-box1 "TEXTFILE 3" (quote textfile) (quote ((om-load-inputfun (quote input-funbox) "object" "self" nil) (om-load-inputfun (quote input-funbox) "input data or text" "exp-list" nil) (om-load-inputfunmenu1 (quote input-funmenu) "append or supersede" "ed-mode" "supersede" (list (list "append" "append") (list "supersede" "supersede"))) (om-load-inputfunmenu1 (quote input-funmenu) "eval interpretation mode" "eval-mode" "list" (list (list "text" "text") (list "data list" "data") (list "list" "list") (list "value" "value"))))) (om-make-point 517 445) (om-make-point 139 106) (load-buffer-textfile (quote ("((1 2 3) (2 3 1))" "((1 3 2) (2 1 3))" "((2 1 3) (1 3 2))" "((2 3 1) (3 1 2))" "((3 1 2) (2 3 1))" "((3 2 1) (1 3 2))" "")) (quote textfile) "supersede" "list") nil nil (pairlis (quote (winsize winpos)) (list (om-make-point 335 275) (om-make-point 10 40))) t nil nil nil))) (when (fboundp (quote set-active)) (set-active box nil)) box) (let ((box (om-load-editor-box1 "TEXTFILE 2" (quote textfile) (quote ((om-load-inputfun (quote input-funbox) "object" "self" nil) (om-load-inputfun (quote input-funbox) "input data or text" "exp-list" nil) (om-load-inputfunmenu1 (quote input-funmenu) "append or supersede" "ed-mode" "supersede" (list (list "append" "append") (list "supersede" "supersede"))) (om-load-inputfunmenu1 (quote input-funmenu) "eval interpretation mode" "eval-mode" "list" (list (list "text" "text") (list "data list" "data") (list "list" "list") (list "value" "value"))))) (om-make-point 515 256) (om-make-point 153 107) (load-buffer-textfile (quote ("(1 2 3)" "(1 3 2)" "(2 1 3)" "(2 3 1)" "(3 1 2)" "(3 2 1)" "")) (quote textfile) "supersede" "list") "x" nil (pairlis (quote (winsize winpos)) (list (om-make-point 335 275) (om-make-point 10 40))) t nil nil nil))) (when (fboundp (quote set-active)) (set-active box nil)) box) (let ((box (om-load-boxcall (quote genfun) "PERMUTATIONS+CANON-GROWTH" (quote cnmat:permutations+canon-growth) (quote ((om-load-inputfun (quote input-funbox) "a list of lists" "MYLIST" (list 1 2 3 4 5)))) (om-make-point 491 379) nil nil nil nil 1))) (when (fboundp (quote set-active)) (set-active box nil)) box) (let ((box (om-load-boxcomment "comment" (om-make-point 310 29) (quote "Permutations+Canon-Growth") nil (om-make-point 512 18) nil (om-make-color 0 0 0) (om-make-font "Verdana" 12 :family "Verdana" :style (quote (:bold)) :mode (quote nil))))) (when (fboundp (quote set-active)) (set-active box nil)) box) (let ((box (om-load-boxcomment "comment" (om-make-point 256 89) (quote "N.B. if the no. of results desired is > the no. of possible results the computer then the computer will keep searching for results and return none.") "" (om-make-point 79 498) nil (om-make-color 0 0 0) (om-make-font "Verdana" 12 :family "Verdana" :style (quote (:plain)) :mode (quote nil))))) (when (fboundp (quote set-active)) (set-active box nil)) box) (let ((box (om-load-editor-box1 "TEXTFILE" (quote textfile) (quote ((om-load-inputfun (quote input-funbox) "object" "self" nil) (om-load-inputfun (quote input-funbox) "input data or text" "exp-list" nil) (om-load-inputfunmenu1 (quote input-funmenu) "append or supersede" "ed-mode" "supersede" (list (list "append" "append") (list "supersede" "supersede"))) (om-load-inputfunmenu1 (quote input-funmenu) "eval interpretation mode" "eval-mode" "list" (list (list "text" "text") (list "data list" "data") (list "list" "list") (list "value" "value"))))) (om-make-point 85 322) (om-make-point 194 158) (load-buffer-textfile (quote ("(4 1 3 5 2)" "(1 4 3 2 5)" "(3 5 1 2 4)" "(5 4 1 2 3)" "(2 1 3 4 5)" "(2 3 1 4 5)" "(4 3 2 1 5)" "(4 2 3 1 5)" "(3 5 4 2 1)" "(1 2 5 4 3)" "")) (quote textfile) "supersede" "list") nil nil (pairlis (quote (winsize winpos)) (list (om-make-point 335 275) (om-make-point 10 40))) t nil nil nil))) (when (fboundp (quote set-active)) (set-active box nil)) box) (let ((box (om-load-boxcall (quote bastype) "aux 2" (quote t) (quote nil) (om-make-point 99 159) (om-make-point 80 30) (list 1 2 3 4 5) "(1 2 3 4 5)" nil))) (when (fboundp (quote set-active)) (set-active box nil)) box) (let ((box (om-load-boxcall (quote bastype) "aux" (quote t) (quote nil) (om-make-point 255 159) (om-make-point 34 30) 10 "10" nil))) (when (fboundp (quote set-active)) (set-active box nil)) box) (let ((box (om-load-boxcall (quote genfun) "N-PERMUTATIONS-NO-ROTATIONS" (quote cnmat:n-permutations-no-rotations) (quote ((om-load-inputfun (quote input-funbox) "a list for permuting" "MY-LIST" (list 1 2 3 4 5)) (om-load-inputfun (quote input-funbox) "the number of permutations desired" "NUM-RESULTS" 4))) (om-make-point 82 227) nil nil nil nil 1))) (when (fboundp (quote set-active)) (set-active box nil)) box) (let ((box (om-load-boxcomment "comment" (om-make-point 150 29) (quote "no. of results desired") "" (om-make-point 251 124) nil (om-make-color 0 0 0) (om-make-font "Verdana" 12 :family "Verdana" :style (quote (:plain)) :mode (quote nil))))) (when (fboundp (quote set-active)) (set-active box nil)) box) (let ((box (om-load-boxcomment "comment" (om-make-point 126 27) (quote "original list") "" (om-make-point 94 123) nil (om-make-color 0 0 0) (om-make-font "Verdana" 12 :family "Verdana" :style (quote (:plain)) :mode (quote nil))))) (when (fboundp (quote set-active)) (set-active box nil)) box) (let ((box (om-load-boxcomment "comment" (om-make-point 302 69) (quote "Returns a specified number of permutations from a given list such that none of the returned lists are rotations of one another.") "" (om-make-point 79 50) nil (om-make-color 0 0 0) (om-make-font "Verdana" 12 :family "Verdana" :style (quote (:plain)) :mode (quote nil))))) (when (fboundp (quote set-active)) (set-active box nil)) box) (let ((box (om-load-boxcomment "comment" (om-make-point 232 31) (quote "N-Permutations-No-Rotations") "" (om-make-point 78 21) nil (om-make-color 0 0 0) (om-make-font "Verdana" 12 :family "Verdana" :style (quote (:bold)) :mode (quote nil))))) (when (fboundp (quote set-active)) (set-active box nil)) box))) (quote ((5 0 3 1 nil 0) (2 0 4 1 nil 0) (4 1 5 0 nil 0) (12 0 10 1 nil 0) (11 0 12 0 nil 0) (15 1 12 1 nil 0) (17 0 15 1 nil 0) (16 1 17 0 nil 0) (23 0 20 1 nil 0) (21 0 23 0 nil 0) (22 0 23 1 nil 0))) nil 6.1001))
