; OM File Header - Saved 2016/07/12 17:02:47
; (6.1001 :patc (om-make-point 1021 272) (om-make-point 539 23) (om-make-point 422 676) "" 183 0 "2016/07/12 16:41:43" "2016/07/12 17:02:41")
; End File Header
(in-package :om)(load-lib-for (quote nil))(setf *om-current-persistent* (om-load-patch1 "2b-other combination utilities 2" (quote ((let ((box (om-load-boxcomment "comment" (om-make-point 256 89) (quote "N.B. if the no. of results desired is > the no. of possible results the computer then the computer will keep searching for results and return none.") nil (om-make-point 79 541) nil (om-make-color 0 0 0) (om-make-font "Verdana" 12 :family "Verdana" :style (quote (:plain)) :mode (quote nil))))) (when (fboundp (quote set-active)) (set-active box nil)) box) (let ((box (om-load-editor-box1 "TEXTFILE" (quote textfile) (quote ((om-load-inputfun (quote input-funbox) "object" "self" nil) (om-load-inputfun (quote input-funbox) "input data or text" "exp-list" nil) (om-load-inputfunmenu1 (quote input-funmenu) "append or supersede" "ed-mode" "supersede" (list (list "append" "append") (list "supersede" "supersede"))) (om-load-inputfunmenu1 (quote input-funmenu) "eval interpretation mode" "eval-mode" "list" (list (list "text" "text") (list "data list" "data") (list "list" "list") (list "value" "value"))))) (om-make-point 85 365) (om-make-point 194 158) (load-buffer-textfile (quote ("(1 3 2 5 4)" "(4 3 1 5 2)" "(2 1 5 4 3)" "(2 4 5 1 3)" "(2 1 3 5 4)" "(3 4 1 5 2)" "(1 2 4 5 3)" "(3 2 4 1 5)" "(5 1 2 4 3)" "(4 2 5 3 1)" "")) (quote textfile) "supersede" "list") nil nil (pairlis (quote (winsize winpos)) (list (om-make-point 335 275) (om-make-point 10 40))) t nil nil nil))) (when (fboundp (quote set-active)) (set-active box nil)) box) (let ((box (om-load-boxcall (quote bastype) "aux 2" (quote t) (quote nil) (om-make-point 99 202) (om-make-point 80 30) (list 1 2 3 4 5) "(1 2 3 4 5)" nil))) (when (fboundp (quote set-active)) (set-active box nil)) box) (let ((box (om-load-boxcall (quote bastype) "aux" (quote t) (quote nil) (om-make-point 255 202) (om-make-point 34 30) 10 "10" nil))) (when (fboundp (quote set-active)) (set-active box nil)) box) (let ((box (om-load-boxcall (quote genfun) "N-PERMUTATIONS-NO-ROTATIONS" (quote cnmat:n-permutations-no-rotations) (quote ((om-load-inputfun (quote input-funbox) "a list for permuting" "MY-LIST" (list 1 2 3 4 5)) (om-load-inputfun (quote input-funbox) "the number of permutations desired" "NUM-RESULTS" 4))) (om-make-point 82 270) nil nil nil nil 1))) (when (fboundp (quote set-active)) (set-active box nil)) box) (let ((box (om-load-boxcomment "comment" (om-make-point 150 29) (quote "no. of results desired") "" (om-make-point 251 167) nil (om-make-color 0 0 0) (om-make-font "Verdana" 12 :family "Verdana" :style (quote (:plain)) :mode (quote nil))))) (when (fboundp (quote set-active)) (set-active box nil)) box) (let ((box (om-load-boxcomment "comment" (om-make-point 126 27) (quote "original list") "" (om-make-point 94 166) nil (om-make-color 0 0 0) (om-make-font "Verdana" 12 :family "Verdana" :style (quote (:plain)) :mode (quote nil))))) (when (fboundp (quote set-active)) (set-active box nil)) box) (let ((box (om-load-boxcomment "comment" (om-make-point 302 69) (quote "Returns a specified number of permutations from a given list such that none of the returned lists are rotations of one another.") "" (om-make-point 79 93) nil (om-make-color 0 0 0) (om-make-font "Verdana" 12 :family "Verdana" :style (quote (:plain)) :mode (quote nil))))) (when (fboundp (quote set-active)) (set-active box nil)) box) (let ((box (om-load-boxcomment "comment" (om-make-point 232 31) (quote "N-Permutations-No-Rotations") "" (om-make-point 78 64) nil (om-make-color 0 0 0) (om-make-font "Verdana" 12 :family "Verdana" :style (quote (:bold)) :mode (quote nil))))) (when (fboundp (quote set-active)) (set-active box nil)) box))) (quote ((4 0 1 1 nil 0) (2 0 4 0 nil 0) (3 0 4 1 nil 0))) nil 6.1001))
