; OM File Header - Saved 2016/07/20 15:48:55
; (6.1001 :patc (om-make-point 1041 642) (om-make-point 476 23) (om-make-point 710 729) "" 183 0 nil "2016/07/20 15:48:55")
; End File Header
(in-package :om)(load-lib-for (quote ("CNMAT-OM")))(setf *om-current-persistent* (om-load-patch1 "3-r-diminutions" (quote ((let ((box (om-load-boxcomment "comment" (om-make-point 208 28) (quote "Interleaved parent-child pairs") "" (om-make-point 413 371) nil (om-make-color 0 0 0) (om-make-font "Verdana" 12 :family "Verdana" :style (quote (:plain)) :mode (quote nil))))) (when (fboundp (quote set-active)) (set-active box nil)) box) (let ((box (om-load-editor-box1 "PRF" (quote cnmat::prf) (quote ((om-load-inputfun (quote input-funbox) "object" "self" nil) (om-load-inputfun (quote input-funbox) "" "voices" nil))) (om-make-point 332 416) (om-make-point 326 272) (if (find-class (quote cnmat::prf) nil) (make-instance (quote cnmat::prf) :voices (list (if (find-class (quote cnmat::rhythmic-frame) nil) (make-instance (quote cnmat::rhythmic-frame) :pulses (list 2 3 4 6) :from-file t)) (if (find-class (quote cnmat::rhythmic-frame) nil) (make-instance (quote cnmat::rhythmic-frame) :pulses (list -9 3 3) :from-file t)) (if (find-class (quote cnmat::rhythmic-frame) nil) (make-instance (quote cnmat::rhythmic-frame) :pulses (list 3 4 6 2) :from-file t)) (if (find-class (quote cnmat::rhythmic-frame) nil) (make-instance (quote cnmat::rhythmic-frame) :pulses (list -7 3 3 -2) :from-file t)) (if (find-class (quote cnmat::rhythmic-frame) nil) (make-instance (quote cnmat::rhythmic-frame) :pulses (list 4 6 2 3) :from-file t)) (if (find-class (quote cnmat::rhythmic-frame) nil) (make-instance (quote cnmat::rhythmic-frame) :pulses (list -4 3 3 -2 -3) :from-file t)) (if (find-class (quote cnmat::rhythmic-frame) nil) (make-instance (quote cnmat::rhythmic-frame) :pulses (list 6 2 3 4) :from-file t)) (if (find-class (quote cnmat::rhythmic-frame) nil) (make-instance (quote cnmat::rhythmic-frame) :pulses (list 3 3 -2 -3 -4) :from-file t))) :from-file t)) nil nil (pairlis (quote (winsize winpos)) (list (om-make-point 335 275) (om-make-point 10 40))) t nil nil nil))) (when (fboundp (quote set-active)) (set-active box nil)) box) (let ((box (om-load-boxcall (quote lispfun) "R-INTERLEAVE" (quote cnmat:r-interleave) (quote ((om-load-inputfun (quote input-funbox) "RHYTHM-PARENT" "RHYTHM-PARENT" nil) (om-load-inputfun (quote input-funbox) "RHYTHM-CHILD" "RHYTHM-CHILD" nil))) (om-make-point 335 373) nil nil nil nil 1))) (when (fboundp (quote set-active)) (set-active box nil)) box) (let ((box (om-load-boxcomment "comment" (om-make-point 118 24) (quote "diminutions") "" (om-make-point 209 375) nil (om-make-color 0 0 0) (om-make-font "Verdana" 12 :family "Verdana" :style (quote (:plain)) :mode (quote nil))))) (when (fboundp (quote set-active)) (set-active box nil)) box) (let ((box (om-load-boxcomment "comment" (om-make-point 45 28) (quote "value") "" (om-make-point 158 374) nil (om-make-color 0 0 0) (om-make-font "Verdana" 12 :family "Verdana" :style (quote (:plain)) :mode (quote nil))))) (when (fboundp (quote set-active)) (set-active box nil)) box) (let ((box (om-load-boxcomment "comment" (om-make-point 283 134) (quote "Like r-substitutions object, r-diminutions replaces a rhythmic value with subset values (diminutions)  that sum to the original value.$$R-diminutions will only show the diminutions in the rhythmic frame.  All other values will be rests") "" (om-make-point 329 99) nil (om-make-color 0 0 0) (om-make-font "Verdana" 12 :family "Verdana" :style (quote (:plain)) :mode (quote nil))))) (when (fboundp (quote set-active)) (set-active box nil)) box) (let ((box (om-load-boxcomment "comment" (om-make-point 151 26) (quote "R-DIMINUTIONS") "" (om-make-point 332 62) nil (om-make-color 0 0 0) (om-make-font "Verdana" 12 :family "Verdana" :style (quote (:bold)) :mode (quote nil))))) (when (fboundp (quote set-active)) (set-active box nil)) box) (let ((box (om-load-boxcall (quote bastype) "aux 9" (quote t) (quote nil) (om-make-point 211 401) (om-make-point 48 30) (list 3 3) "(3 3)" nil))) (when (fboundp (quote set-active)) (set-active box nil)) box) (let ((box (om-load-boxcall (quote bastype) "aux 8" (quote t) (quote nil) (om-make-point 162 403) (om-make-point 27 30) 6 "6" nil))) (when (fboundp (quote set-active)) (set-active box nil)) box) (let ((box (om-load-boxcall (quote genfun) "R-DIMINUTIONS 2" (quote cnmat:r-diminutions) (quote ((om-load-inputfun (quote input-funbox) "" "RHYTHM" nil) (om-load-inputfun (quote input-funbox) "" "VAL" nil) (om-load-inputfun (quote input-funbox) "" "SUBS" nil))) (om-make-point 134 453) nil nil nil nil 1))) (when (fboundp (quote set-active)) (set-active box nil)) box) (let ((box (om-load-editor-box1 "PRF" (quote cnmat::prf) (quote ((om-load-inputfun (quote input-funbox) "object" "self" nil) (om-load-inputfun (quote input-funbox) "" "voices" nil))) (om-make-point 97 515) (om-make-point 190 156) (if (find-class (quote cnmat::prf) nil) (make-instance (quote cnmat::prf) :voices (list (if (find-class (quote cnmat::rhythmic-frame) nil) (make-instance (quote cnmat::rhythmic-frame) :pulses (list -9 3 3) :from-file t)) (if (find-class (quote cnmat::rhythmic-frame) nil) (make-instance (quote cnmat::rhythmic-frame) :pulses (list -7 3 3 -2) :from-file t)) (if (find-class (quote cnmat::rhythmic-frame) nil) (make-instance (quote cnmat::rhythmic-frame) :pulses (list -4 3 3 -2 -3) :from-file t)) (if (find-class (quote cnmat::rhythmic-frame) nil) (make-instance (quote cnmat::rhythmic-frame) :pulses (list 3 3 -2 -3 -4) :from-file t))) :from-file t)) nil nil (pairlis (quote (winsize winpos)) (list (om-make-point 335 275) (om-make-point 10 40))) t nil nil nil))) (when (fboundp (quote set-active)) (set-active box nil)) box) (let ((box (om-load-boxcall (quote genfun) "GET-ROTATIONS" (quote cnmat:get-rotations) (quote ((om-load-inputfun (quote input-funbox) "a list of values" "DURATIONS" (list 1 2 3)))) (om-make-point 92 106) nil nil nil nil 1))) (when (fboundp (quote set-active)) (set-active box nil)) box) (let ((box (om-load-boxcall (quote bastype) "list" (quote list) (quote nil) (om-make-point 92 64) (om-make-point 70 30) (list 2 3 4 6) "(2 3 4 6)" nil))) (when (fboundp (quote set-active)) (set-active box nil)) box) (let ((box (om-load-editor-box1 "PRF 2" (quote cnmat::prf) (quote ((om-load-inputfun (quote input-funbox) "object" "self" nil) (om-load-inputfun (quote input-funbox) "" "voices" nil))) (om-make-point 93 200) (om-make-point 190 156) (if (find-class (quote cnmat::prf) nil) (make-instance (quote cnmat::prf) :voices (list (if (find-class (quote cnmat::rhythmic-frame) nil) (make-instance (quote cnmat::rhythmic-frame) :pulses (list 2 3 4 6) :from-file t)) (if (find-class (quote cnmat::rhythmic-frame) nil) (make-instance (quote cnmat::rhythmic-frame) :pulses (list 3 4 6 2) :from-file t)) (if (find-class (quote cnmat::rhythmic-frame) nil) (make-instance (quote cnmat::rhythmic-frame) :pulses (list 4 6 2 3) :from-file t)) (if (find-class (quote cnmat::rhythmic-frame) nil) (make-instance (quote cnmat::rhythmic-frame) :pulses (list 6 2 3 4) :from-file t))) :from-file t)) nil nil (pairlis (quote (winsize winpos)) (list (om-make-point 335 275) (om-make-point 10 40))) t nil nil nil))) (when (fboundp (quote set-active)) (set-active box nil)) box))) (quote ((2 0 1 1 nil 0) (13 1 2 0 nil 0) (10 1 2 1 nil 0) (13 0 9 0 nil 0) (8 0 9 1 nil 0) (7 0 9 2 nil 0) (9 0 10 0 nil 0) (12 0 11 0 nil 0) (11 0 13 1 nil 0))) nil 6.1001))
