; OM File Header - Saved 2016/05/11 10:54:37
; (6.1001 :patc (om-make-point 604 60) (om-make-point 50 50) (om-make-point 677 672) "" 183 0 "2016/05/11 10:53:55" "2016/05/11 10:54:37")
; End File Header
(in-package :om)(load-lib-for (quote ("CNMAT-OM")))(setf *om-current-persistent* (om-load-patch1 "3-substitutions" (quote ((let ((box (om-load-editor-box1 "PRF" (quote cnmat::prf) (quote ((om-load-inputfun (quote input-funbox) "object" "self" nil) (om-load-inputfun (quote input-funbox) "" "voices" nil))) (om-make-point 279 434) (om-make-point 190 156) (if (find-class (quote cnmat::prf) nil) (make-instance (quote cnmat::prf) :voices (list (if (find-class (quote cnmat::rhythmic-frame) nil) (make-instance (quote cnmat::rhythmic-frame) :pulses (list 2 3 4 4 2) :from-file t)) (if (find-class (quote cnmat::rhythmic-frame) nil) (make-instance (quote cnmat::rhythmic-frame) :pulses (list 3 4 4 2 2) :from-file t)) (if (find-class (quote cnmat::rhythmic-frame) nil) (make-instance (quote cnmat::rhythmic-frame) :pulses (list 4 4 2 2 3) :from-file t)) (if (find-class (quote cnmat::rhythmic-frame) nil) (make-instance (quote cnmat::rhythmic-frame) :pulses (list 4 2 2 3 4) :from-file t))) :from-file t)) nil nil (pairlis (quote (winsize winpos)) (list (om-make-point 335 275) (om-make-point 10 40))) t nil nil nil))) (when (fboundp (quote set-active)) (set-active box nil)) box) (let ((box (om-load-boxcall (quote bastype) "aux 3" (quote t) (quote nil) (om-make-point 428 339) (om-make-point 48 30) (list 4 2) "(4 2)" nil))) (when (fboundp (quote set-active)) (set-active box nil)) box) (let ((box (om-load-boxcall (quote bastype) "aux" (quote t) (quote nil) (om-make-point 402 308) (om-make-point 27 30) 6 "6" nil))) (when (fboundp (quote set-active)) (set-active box nil)) box) (let ((box (om-load-boxcall (quote lispfun) "R-SUBSTITUTE" (quote cnmat::r-substitute) (quote ((om-load-inputfun (quote input-funbox) "RHYTHM" "RHYTHM" nil) (om-load-inputfun (quote input-funbox) "VAL" "VAL" nil) (om-load-inputfun (quote input-funbox) "SUBS" "SUBS" (list 4 2)))) (om-make-point 378 370) nil nil nil nil 1))) (when (fboundp (quote set-active)) (set-active box nil)) box) (let ((box (om-load-editor-box1 "PRF" (quote cnmat::prf) (quote ((om-load-inputfun (quote input-funbox) "object" "self" nil) (om-load-inputfun (quote input-funbox) "" "voices" nil))) (om-make-point 174 180) (om-make-point 190 156) (if (find-class (quote cnmat::prf) nil) (make-instance (quote cnmat::prf) :voices (list (if (find-class (quote cnmat::rhythmic-frame) nil) (make-instance (quote cnmat::rhythmic-frame) :pulses (list 2 3 4 6) :from-file t)) (if (find-class (quote cnmat::rhythmic-frame) nil) (make-instance (quote cnmat::rhythmic-frame) :pulses (list 3 4 6 2) :from-file t)) (if (find-class (quote cnmat::rhythmic-frame) nil) (make-instance (quote cnmat::rhythmic-frame) :pulses (list 4 6 2 3) :from-file t)) (if (find-class (quote cnmat::rhythmic-frame) nil) (make-instance (quote cnmat::rhythmic-frame) :pulses (list 6 2 3 4) :from-file t))) :from-file t)) nil nil (pairlis (quote (winsize winpos)) (list (om-make-point 335 275) (om-make-point 10 40))) t nil nil nil))) (when (fboundp (quote set-active)) (set-active box nil)) box) (let ((box (om-load-boxcall (quote bastype) "list 3" (quote list) (quote nil) (om-make-point 149 44) (om-make-point 70 30) (list 2 3 4 6) "(2 3 4 6)" nil))) (when (fboundp (quote set-active)) (set-active box nil)) box) (let ((box (om-load-boxcall (quote genfun) "GET-ROTATIONS" (quote cnmat:get-rotations) (quote ((om-load-inputfun (quote input-funbox) "a list of values" "DURATIONS" (list 1 2 3)))) (om-make-point 142 86) nil nil nil nil 1))) (when (fboundp (quote set-active)) (set-active box nil)) box))) (quote ((3 0 0 0 nil 0) (4 0 3 0 nil 0) (2 0 3 1 nil 0) (1 0 3 2 nil 0) (6 0 4 1 nil 0) (5 0 6 0 nil 0))) nil 6.1001))