; OM File Header - Saved 2016/07/21 14:14:34
; (6.1001 :patc (om-make-point 953 672) (om-make-point 221 23) (om-make-point 1021 696) "" 183 0 nil "2016/07/21 14:14:29")
; End File Header
(in-package :om)(load-lib-for (quote ("CNMAT-OM")))(setf *om-current-persistent* (om-load-patch1 "appendix rand-from-list example-new" (quote ((let ((box (om-load-boxcomment "comment" (om-make-point 305 52) (quote "*allows for pitches, chords and weights for each, if desired") "" (om-make-point 573 56) nil (om-make-color 0 0 0) (om-make-font "Verdana" 12 :family "Verdana" :style (quote (:plain)) :mode (quote nil))))) (when (fboundp (quote set-active)) (set-active box nil)) box) (let ((box (om-load-boxcall (quote genfun) "RAND-FROM-LIST" (quote cnmat:rand-from-list) (quote ((om-load-inputfun (quote input-funbox) "a list with or without random weights" "MYLIST" (list 7100 (list 7200 0.9) 7300 7400 7800)) (om-load-inputfun (quote input-funbox) "desired length of output sequence" "NUM-RETURN-VALS" 20))) (om-make-point 698 438) nil nil nil nil 1))) (when (fboundp (quote set-active)) (set-active box nil)) box) (let ((box (om-load-boxcall (quote genfun) "RAND-FROM-LIST" (quote cnmat:rand-from-list) (quote ((om-load-inputfun (quote input-funbox) "a list with or without random weights" "MYLIST" (list 7100 (list 7200 0.9) 7300 7400 7800)) (om-load-inputfun (quote input-funbox) "desired length of output sequence" "NUM-RETURN-VALS" 20))) (om-make-point 179 408) nil nil nil nil 1))) (when (fboundp (quote set-active)) (set-active box nil)) box) (let ((box (om-load-editor-box1 "TEXTFILE" (quote textfile) (quote ((om-load-inputfun (quote input-funbox) "object" "self" nil) (om-load-inputfun (quote input-funbox) "input data or text" "exp-list" nil) (om-load-inputfunmenu1 (quote input-funmenu) "append or supersede" "ed-mode" "supersede" (list (list "append" "append") (list "supersede" "supersede"))) (om-load-inputfunmenu1 (quote input-funmenu) "eval interpretation mode" "eval-mode" "list" (list (list "text" "text") (list "data list" "data") (list "list" "list") (list "value" "value"))))) (om-make-point 79 300) (om-make-point 191 53) (load-buffer-textfile (quote ("7100 7200 7300 7400 7800 (9700 9900)" "" "" "" "" "" "" "")) (quote textfile) "supersede" "list") "x" nil (pairlis (quote (winpos winsize)) (list (om-make-point 10 40) (om-make-point 335 275))) t nil nil nil))) (when (fboundp (quote set-active)) (set-active box nil)) box) (let ((box (om-load-editor-box1 "TEXTFILE" (quote textfile) (quote ((om-load-inputfun (quote input-funbox) "object" "self" nil) (om-load-inputfun (quote input-funbox) "input data or text" "exp-list" nil) (om-load-inputfunmenu1 (quote input-funmenu) "append or supersede" "ed-mode" "supersede" (list (list "append" "append") (list "supersede" "supersede"))) (om-load-inputfunmenu1 (quote input-funmenu) "eval interpretation mode" "eval-mode" "list" (list (list "text" "text") (list "data list" "data") (list "list" "list") (list "value" "value"))))) (om-make-point 478 368) (om-make-point 281 40) (load-buffer-textfile (quote ("7100 (7200 0.3) 7300 7400 ((7800 8000 8200) 0.3)" "" "" "" "" "" "" "")) (quote textfile) "supersede" "list") "x" nil (pairlis (quote (winpos winsize)) (list (om-make-point 10 40) (om-make-point 335 275))) t nil nil nil))) (when (fboundp (quote set-active)) (set-active box nil)) box) (let ((box (om-load-boxcomment "comment" (om-make-point 53 23) (quote "list") "" (om-make-point 547 346) nil (om-make-color 0 0 0) (om-make-font "Verdana" 12 :family "Verdana" :style (quote (:plain)) :mode (quote nil))))) (when (fboundp (quote set-active)) (set-active box nil)) box) (let ((box (om-load-editor-box1 "TEXTFILE 2" (quote textfile) (quote ((om-load-inputfun (quote input-funbox) "object" "self" nil) (om-load-inputfun (quote input-funbox) "input data or text" "exp-list" nil) (om-load-inputfunmenu1 (quote input-funmenu) "append or supersede" "ed-mode" "supersede" (list (list "append" "append") (list "supersede" "supersede"))) (om-load-inputfunmenu1 (quote input-funmenu) "eval interpretation mode" "eval-mode" "list" (list (list "text" "text") (list "data list" "data") (list "list" "list") (list "value" "value"))))) (om-make-point 612 526) (om-make-point 317 44) (load-buffer-textfile (quote ("(7400 (7800 8000 8200) 7200 7100 (7800 8000 8200) 7200 7200 7400 (7800 8000 8200) 7200 7200 (7800 8000 8200) (7800 8000 8200) 7400 7300 (7800 8000 8200) 7100 7200 (7800 8000 8200) 7200)" "")) (quote textfile) "supersede" "list") nil nil (pairlis (quote (winsize winpos)) (list (om-make-point 335 275) (om-make-point 10 40))) t nil nil nil))) (when (fboundp (quote set-active)) (set-active box nil)) box) (let ((box (om-load-boxcomment "comment" (om-make-point 321 69) (quote "Return a list for a given number of elements with an equal probability weighting.") "" (om-make-point 94 542) nil (om-make-color 0 0 0) (om-make-font "Verdana" 12 :family "Verdana" :style (quote (:plain)) :mode (quote nil))))) (when (fboundp (quote set-active)) (set-active box nil)) box) (let ((box (om-load-boxcall (quote bastype) "aux 4" (quote t) (quote nil) (om-make-point 790 378) (om-make-point 34 30) 20 "20" nil))) (when (fboundp (quote set-active)) (set-active box nil)) box) (let ((box (om-load-boxcomment "comment" (om-make-point 155 28) (quote "number of attacks") "" (om-make-point 789 347) nil (om-make-color 0 0 0) (om-make-font "Verdana" 12 :family "Verdana" :style (quote (:plain)) :mode (quote nil))))) (when (fboundp (quote set-active)) (set-active box nil)) box) (let ((box (om-load-boxcomment "comment" (om-make-point 350 141) (quote "Example2$Provide probability weights as desired for any element in the list.$Format as follows (element probability) where the sum of the probabilities is < 1.0.$Any elements without designated probabilities will be assigned equal probabilities from the remainder, adding to 1.0.") "" (om-make-point 545 159) nil (om-make-color 0 0 0) (om-make-font "Verdana" 12 :family "Verdana" :style (quote (:plain)) :mode (quote nil))))) (when (fboundp (quote set-active)) (set-active box nil)) box) (let ((box (om-load-editor-box1 "TEXTFILE 2" (quote textfile) (quote ((om-load-inputfun (quote input-funbox) "object" "self" nil) (om-load-inputfun (quote input-funbox) "input data or text" "exp-list" nil) (om-load-inputfunmenu1 (quote input-funmenu) "append or supersede" "ed-mode" "supersede" (list (list "append" "append") (list "supersede" "supersede"))) (om-load-inputfunmenu1 (quote input-funmenu) "eval interpretation mode" "eval-mode" "list" (list (list "text" "text") (list "data list" "data") (list "list" "list") (list "value" "value"))))) (om-make-point 93 490) (om-make-point 317 44) (load-buffer-textfile (quote ("(7200 7100 7800 7100 7100 7200 7400 7200 (9700 9900) 7300 7200 7400 7800 7300 (9700 9900) 7200 (9700 9900) 7800 7100 7400)" "")) (quote textfile) "supersede" "list") nil nil (pairlis (quote (winsize winpos)) (list (om-make-point 335 275) (om-make-point 10 40))) t nil nil nil))) (when (fboundp (quote set-active)) (set-active box nil)) box) (let ((box (om-load-boxcomment "comment" (om-make-point 155 28) (quote "number of attacks") "" (om-make-point 298 269) nil (om-make-color 0 0 0) (om-make-font "Verdana" 12 :family "Verdana" :style (quote (:plain)) :mode (quote nil))))) (when (fboundp (quote set-active)) (set-active box nil)) box) (let ((box (om-load-boxcomment "comment" (om-make-point 53 23) (quote "list") "" (om-make-point 78 264) nil (om-make-color 0 0 0) (om-make-font "Verdana" 12 :family "Verdana" :style (quote (:plain)) :mode (quote nil))))) (when (fboundp (quote set-active)) (set-active box nil)) box) (let ((box (om-load-boxcall (quote bastype) "aux 4" (quote t) (quote nil) (om-make-point 300 328) (om-make-point 34 30) 20 "20" nil))) (when (fboundp (quote set-active)) (set-active box nil)) box) (let ((box (om-load-boxcomment "comment" (om-make-point 183 92) (quote "Example 1$If a list of elements is given with no weights then all elements have equal proability of being chosen.") "" (om-make-point 79 169) nil (om-make-color 0 0 0) (om-make-font "Verdana" 12 :family "Verdana" :style (quote (:plain)) :mode (quote nil))))) (when (fboundp (quote set-active)) (set-active box nil)) box) (let ((box (om-load-boxcomment "comment" (om-make-point 452 73) (quote "Returns a sequence of random elements of n-length from a list.$Weights may be supplied for elements for the random selection.  Otherwise, all elements are given equal probability of occurring.") "" (om-make-point 77 67) nil (om-make-color 0 0 0) (om-make-font "Verdana" 12 :family "Verdana" :style (quote (:plain)) :mode (quote nil))))) (when (fboundp (quote set-active)) (set-active box nil)) box) (let ((box (om-load-boxcomment "comment" (om-make-point 236 47) (quote "RANDOM SEQUENCE FROM A LIST") "" (om-make-point 77 39) nil (om-make-color 0 0 0) (om-make-font "Verdana" 12 :family "Verdana" :style (quote (:bold)) :mode (quote nil))))) (when (fboundp (quote set-active)) (set-active box nil)) box) (let ((box (om-load-boxcomment "comment" (om-make-point 323 39) (quote "Return a list for a given number of elements with a certain probability weighting") "" (om-make-point 611 573) nil (om-make-color 0 0 0) (om-make-font "Verdana" 12 :family "Verdana" :style (quote (:plain)) :mode (quote nil))))) (when (fboundp (quote set-active)) (set-active box nil)) box) (let ((box (om-load-boxcomment "comment" (om-make-point 299 44) (quote "format list as (element &optional probability)$probabilities must be less <= 1") "" (om-make-point 546 295) nil (om-make-color 0 0 0) (om-make-font "Verdana" 12 :family "Verdana" :style (quote (:plain)) :mode (quote nil))))) (when (fboundp (quote set-active)) (set-active box nil)) box))) (quote ((4 1 1 0 nil 0) (8 0 1 1 nil 0) (3 1 2 0 nil 0) (14 0 2 1 nil 0) (1 0 6 1 nil 0) (2 0 11 1 nil 0))) nil 6.1001))
