; OM File Header - Saved 2017/05/19 14:47:01
; (6.120003 :patc (om-make-point 24 24) (om-make-point 50 50) (om-make-point 790 631) "" 183 0 nil "2017/05/19 14:47:01")
; End File Header
(in-package :om)(load-lib-for (quote ("CNMAT-OM")))(setf *om-current-persistent* (om-load-patch1 "p-make-bands" (quote ((let ((box (om-load-boxcall (quote genfun) "P-BANDS-COLLECTION" (quote cnmat:p-bands-collection) (quote ((om-load-inputfun (quote input-funbox) "a bpf-lib of two bpfs" "BPF-LIB" nil) (om-load-inputfun (quote input-funbox) "a list of list of attacks, in rotations or other specification" "ATTACKS-VOICES" (list (list 1 2 3 4) (list 2 3 4 5))) (om-load-inputfun (quote input-funbox) " a pitch collection from which to draw pitches" "PITCH-COLLECTION" (list 6000 6600 7200 7500)))) (om-make-point 500 413) nil nil nil nil 1))) (when (fboundp (quote set-active)) (set-active box nil)) box) (let ((box (om-load-boxcall (quote genfun) "P-BANDS-PITCHCLASS" (quote cnmat:p-bands-pitchclass) (quote ((om-load-inputfun (quote input-funbox) "a bpf-lib of two bpfs" "BPF-LIB" nil) (om-load-inputfun (quote input-funbox) "a list of list of attacks, in rotations or other specification" "ATTACKS-VOICES" (list (list 1 2 3 4) (list 2 3 4 5))) (om-load-inputfun (quote input-funbox) " a collection of allowable pitchclasses" "ALLOWABLE-PITCHCLASSES" (list 0 1 5)))) (om-make-point 496 311) nil nil nil nil 1))) (when (fboundp (quote set-active)) (set-active box nil)) box) (let ((box (om-load-boxcall (quote genfun) "P-MAKE-BANDS" (quote cnmat:p-make-bands) (quote ((om-load-inputfun (quote input-funbox) "a chord-seq" "MY-CHORD-SEQ" (list nil)))) (om-make-point 79 241) nil nil nil nil 1))) (when (fboundp (quote set-active)) (set-active box nil)) box) (let ((box (om-load-boxcomment "comment" (om-make-point 429 187) (quote "Returns a bpf lib for a pitch band to be sampled. It describes a band of pitches by taking in a chord-seq with three of more dyads. The object returns a bpf lib describing a pitch band that can be sample across a series of attacks.$$Make-bands should be used in conjunction with objects pitch->bands-pitchclass or pitch->bands-collection objects.$") "" (om-make-point 348 84) nil (om-make-color 0 0 0) (om-make-font "Verdana" 12 :family "Verdana" :style (quote (:plain)) :mode (quote nil))))) (when (fboundp (quote set-active)) (set-active box nil)) box) (let ((box (om-load-boxcomment "comment" (om-make-point 178 33) (quote "P-Make-Bands$") "" (om-make-point 349 48) nil (om-make-color 0 0 0) (om-make-font "Verdana" 12 :family "Verdana" :style (quote (:bold)) :mode (quote nil))))) (when (fboundp (quote set-active)) (set-active box nil)) box) (let ((box (om-load-editor-box1 "BPF-LIB" (quote bpf-lib) (quote ((om-load-inputfun (quote input-funbox) "object" "self" nil) (om-load-inputfun (quote input-funbox) "list of BPF objects" "bpf-list" (list (let ((newobj (when (find-class (quote bpf) nil) (let ((newbpf (simple-bpf-from-list (quote (0 100)) (quote (0 100)) (quote bpf) 0))) (setf (bpfcolor newbpf) (om-make-color 0 0 0)) (set-name newbpf nil) newbpf)))) (when newobj) newobj))))) (om-make-point 80 323) (om-make-point 299 210) (if (find-class (quote bpf-lib) nil) (make-instance (quote bpf-lib) :bpf-list (list (let ((newobj (when (find-class (quote bpf) nil) (let ((newbpf (simple-bpf-from-list (quote (0.0 597.0 1331.0 1638.0 2528.0 2916.0)) (quote (4000.0 4000.0 8400.0 8400.0 4000.0 4000.0)) (quote bpf) 2))) (setf (bpfcolor newbpf) (om-make-color 0 0 0)) (set-name newbpf nil) newbpf)))) (when newobj) newobj) (let ((newobj (when (find-class (quote bpf) nil) (let ((newbpf (simple-bpf-from-list (quote (0.0 597.0 1331.0 1638.0 2528.0 2916.0)) (quote (5200.0 5200.0 9600.0 9600.0 5200.0 5200.0)) (quote bpf) 2))) (setf (bpfcolor newbpf) (om-make-color 0 0 0)) (set-name newbpf nil) newbpf)))) (when newobj) newobj)) :from-file t)) nil nil (pairlis (quote (winsize winpos picture)) (list (om-make-point 799 487) (om-make-point 10 40) nil)) t nil nil nil))) (when (fboundp (quote set-active)) (set-active box nil)) box) (let ((box (om-load-editor-box1 "CHORD-SEQ" (quote chord-seq) (quote ((om-load-inputfun (quote input-funbox) "object" "self" nil) (om-load-inputfun (quote input-funbox) "pitches (mc): list or list of lists" "lmidic" (list 6000)) (om-load-inputfun (quote input-funbox) "onsets (ms): list" "lonset" (list 0 1000)) (om-load-inputfun (quote input-funbox) "durations (ms): list or list of lists" "ldur" (list 1000)) (om-load-inputfun (quote input-funbox) "velocities (0-127): list or list of lists" "lvel" (list 100)) (om-load-inputfun (quote input-funbox) "offsets (ms): list or list of lists" "loffset" (list 0)) (om-load-inputfun (quote input-funbox) "MIDI channels (1-16): list or list of lists" "lchan" (list 1)) (om-load-inputfun (quote input-funbox) "relative chords duration (0-100)" "legato" 0))) (om-make-point 89 105) (om-make-point 186 117) (let ((newobj (when (find-class (quote chord-seq) nil) (make-instance (quote chord-seq) :lmidic (quote ((5200 4000) (5200 4000) (8400 9600) (8400 9600) (4000 5200) (4000 5200))) :lonset (quote (0 597 1331 1638 2528 2916 3916)) :ldur (quote ((1000 1000) (1000 1000) (1000 1000) (1000 1000) (1000 1000) (1000 1000))) :lvel (quote ((100 100) (100 100) (100 100) (100 100) (100 100) (100 100))) :loffset (quote ((0 0) (0 0) (0 0) (0 0) (0 0) (0 0))) :lchan (quote ((1 1) (1 1) (1 1) (1 1) (1 1) (1 1))) :legato 0)))) (load-port-info newobj (quote ((0 0) (0 0) (0 0) (0 0) (0 0) (0 0)))) (init-mus-color newobj (quote nil)) (set-extra-pairs newobj (quote nil)) (set-patch-pairs newobj (quote ((nil (om-load-patch-abs1 "patch" (quote nil) (quote nil) 6.120003 nil "" (om-make-point 200 200) (om-make-point 400 500))) ((4) (om-load-patch-abs1 "patch" (quote nil) (quote nil) 6.120003 nil "" (om-make-point 200 200) (om-make-point 400 500))) ((5) (om-load-patch-abs1 "patch" (quote nil) (quote nil) 6.120003 nil "" (om-make-point 200 200) (om-make-point 400 500)))))) (set-name newobj nil) (set-tonalite newobj nil) newobj) "x" nil (pairlis (quote (approx fontsize staff cmnpref deltapict outport inport player zoom notechancolor? grillestep mode winsize winpos score-mode obj-mode cursor-mode show-stems scale)) (list 2 24 (quote gf) (let ((newobj (make-instance (quote edition-values)))) (setf (paper-size newobj) (om-make-point 600 800)) (setf (top-margin newobj) 2) (setf (left-margin newobj) 1) (setf (right-margin newobj) 1) (setf (bottom-margin newobj) 1) (setf (orientation newobj) nil) (setf (scale newobj) nil) (setf (system-space newobj) (quote (1))) (setf (system-color newobj) (quote nil)) (setf (line-space newobj) 1) (setf (title newobj) nil) (setf (show-title? newobj) nil) (setf (show-page? newobj) nil) (setf (sheet-id newobj) nil) (setf (page-mode newobj) nil) newobj) (om-make-point 0 0) nil nil (quote :midi-player) 1 nil 1000 0 (om-make-point 522 409) (om-make-point 349 204) 0 0 (quote :normal) (quote t) nil)) t nil nil nil))) (when (fboundp (quote set-active)) (set-active box nil)) box))) (quote ((5 1 0 0 nil 0) (5 1 1 0 nil 0) (6 0 2 0 nil 0) (2 0 5 0 nil 0))) nil 6.120003))
