; OM File Header - Saved 2017/05/11 12:19:40
; (6.120003 :patc (om-make-point 874 60) (om-make-point 50 50) (om-make-point 394 599) "" 183 0 "2017/05/11 12:15:39" "2017/05/11 12:19:40")
; End File Header
(in-package :om)(load-lib-for (quote nil))(setf *om-current-persistent* (om-load-patch1 "u-list-dupllicator" (quote ((let ((box (om-load-boxcall (quote genfun) "U-LIST-DUPLICATOR 2" (quote cnmat::u-list-duplicator) (quote ((om-load-inputfun (quote input-funbox) "a list of lists" "MYLIST" nil) (om-load-inputfun (quote input-funbox) "number of duplicates" "DUPLICATES" nil))) (om-make-point 57 279) nil nil nil nil 1))) (when (fboundp (quote set-active)) (set-active box nil)) box) (let ((box (om-load-boxcomment "comment 4" (om-make-point 259 35) (quote "U-List-Duplicator") "" (om-make-point 56 76) nil (om-make-color 0 0 0) (om-make-font "Verdana" 12 :family "Verdana" :style (quote (:bold)) :mode (quote nil))))) (when (fboundp (quote set-active)) (set-active box nil)) box) (let ((box (om-load-boxcomment "comment 2" (om-make-point 435 38) (quote "Duplicates a given <list>, <duplicates> times.$$") "" (om-make-point 57 105) nil (om-make-color 0 0 0) (om-make-font "Verdana" 12 :family "Verdana" :style (quote (:plain)) :mode (quote nil))))) (when (fboundp (quote set-active)) (set-active box nil)) box) (let ((box (om-load-boxcomment "comment" (om-make-point 108 45) (quote "no. of duplicates") "" (om-make-point 203 133) nil (om-make-color 0 0 0) (om-make-font "Verdana" 14.0D0 :family "Verdana" :style (quote (:plain)) :mode (quote nil))))) (when (fboundp (quote set-active)) (set-active box nil)) box) (let ((box (om-load-boxcomment "comment" (om-make-point 43 30) (quote "list") "" (om-make-point 61 147) nil (om-make-color 0 0 0) (om-make-font "Verdana" 14.0D0 :family "Verdana" :style (quote (:plain)) :mode (quote nil))))) (when (fboundp (quote set-active)) (set-active box nil)) box) (let ((box (om-load-editor-box1 "TEXTFILE 2" (quote textfile) (quote ((om-load-inputfun (quote input-funbox) "object" "self" nil) (om-load-inputfun (quote input-funbox) "input data or text" "exp-list" nil) (om-load-inputfunmenu1 (quote input-funmenu) "append or supersede" "ed-mode" "supersede" (list (list "append" "append") (list "supersede" "supersede"))) (om-load-inputfunmenu1 (quote input-funmenu) "eval interpretation mode" "eval-mode" "list" (list (list "text" "text") (list "data list" "data") (list "list" "list") (list "value" "value"))))) (om-make-point 63 381) (om-make-point 170 157) (load-buffer-textfile (quote ("(6000 6100 6700)" "(6000 6100 6700)" "(6000 6100 6700)" "(6100 6700 6000)" "(6100 6700 6000)" "(6100 6700 6000)" "(6700 6000 6100)" "(6700 6000 6100)" "(6700 6000 6100)" "")) (quote textfile) "supersede" "list") nil nil (pairlis (quote (winpos winsize)) (list (om-make-point 10 40) (om-make-point 335 275))) t nil nil nil))) (when (fboundp (quote set-active)) (set-active box nil)) box) (let ((box (om-load-boxcall (quote bastype) "aux" (quote t) (quote nil) (om-make-point 206 187) (om-make-point 27 30) 3 "3" nil))) (when (fboundp (quote set-active)) (set-active box nil)) box) (let ((box (om-load-editor-box1 "TEXTFILE" (quote textfile) (quote ((om-load-inputfun (quote input-funbox) "object" "self" nil) (om-load-inputfun (quote input-funbox) "input data or text" "exp-list" nil) (om-load-inputfunmenu1 (quote input-funmenu) "append or supersede" "ed-mode" "supersede" (list (list "append" "append") (list "supersede" "supersede"))) (om-load-inputfunmenu1 (quote input-funmenu) "eval interpretation mode" "eval-mode" "list" (list (list "text" "text") (list "data list" "data") (list "list" "list") (list "value" "value"))))) (om-make-point 63 184) (om-make-point 70 50) (load-buffer-textfile (quote ("(6000 6100 6700)" "" "(6100 6700 6000)" "" "(6700 6000 6100)" "")) (quote textfile) "supersede" "list") "x" nil (pairlis (quote (winpos winsize)) (list (om-make-point 10 40) (om-make-point 335 275))) t nil nil nil))) (when (fboundp (quote set-active)) (set-active box nil)) box))) (quote ((7 1 0 0 nil 0) (6 0 0 1 nil 0) (0 0 5 1 nil 0))) nil 6.120003))
